<svg xmlns="http://www.w3.org/2000/svg" xmlns:xlink="http://www.w3.org/1999/xlink" width="1920" height="932" viewBox="0 0 1920 932"><defs><clipPath id="a"><path d="M251.044,119.678a4.081,4.081,0,0,0,2.331,7.715,3.931,3.931,0,0,0,1.226-.374,4.078,4.078,0,1,0-3.557-7.34m-9.74-.814a4.088,4.088,0,1,0,2.837-1.144,4.09,4.09,0,0,0-2.837,1.144m15.088-7.4a4.089,4.089,0,0,0-3.457,4.632l0,.031a4.081,4.081,0,0,0,8.087-1.1l0-.023c0-.029-.008-.059-.011-.09a4.081,4.081,0,0,0-4.031-3.491,4.013,4.013,0,0,0-.59.044m-17.087-.306a4.082,4.082,0,1,0,3.6-2.166,4.076,4.076,0,0,0-3.6,2.166m7.545-2.9c-.02.08-.036.16-.049.242a4.081,4.081,0,0,0,3.331,4.715,4.308,4.308,0,0,0,1.237.016,4.068,4.068,0,0,0,3.426-4.974Z" transform="translate(-238.823 -108.255)" fill="none"/></clipPath><linearGradient id="b" x1="-15.24" y1="29.285" x2="-15.176" y2="29.285" gradientUnits="objectBoundingBox"><stop offset="0" stop-color="#a728da"/><stop offset="0.239" stop-color="#a728da"/><stop offset="0.694" stop-color="#548ef7"/><stop offset="0.919" stop-color="#7dc6fd"/><stop offset="1" stop-color="#7dc6fd"/></linearGradient><clipPath id="c"><path d="M250.076,135.187a3.831,3.831,0,0,0,3.81,3.846,3.421,3.421,0,0,0,.541-.033,3.829,3.829,0,0,0-.505-7.623h-.038a3.823,3.823,0,0,0-3.808,3.81m11.853-6.108a3.823,3.823,0,1,0,2.051-.6,3.834,3.834,0,0,0-2.051.6M240.658,130.1a3.831,3.831,0,1,0,5.3-1.125v.01a3.819,3.819,0,0,0-5.3,1.115m26.771-7.278A3.827,3.827,0,1,0,270.9,120.6a3.836,3.836,0,0,0-3.472,2.216m-31.962-2.086a3.833,3.833,0,0,0,2.087,7.295,3.643,3.643,0,0,0,1.059-.311,3.83,3.83,0,1,0-3.146-6.984M271.915,110.2a3.838,3.838,0,0,0-3.261,4.326l0,.031,0,.031a3.83,3.83,0,1,0,7.59-1.035.825.825,0,0,0-.011-.092,3.838,3.838,0,0,0-3.79-3.3,4.019,4.019,0,0,0-.538.038m-40.1,3.084a3.817,3.817,0,0,0,3.22,4.348,3.578,3.578,0,0,0,1.08.008,3.831,3.831,0,0,0,.047-7.587,3.941,3.941,0,0,0-.567-.041,3.832,3.832,0,0,0-3.78,3.272m35.863-5.029a3.909,3.909,0,0,0,.917,0Z" transform="translate(-231.773 -108.255)" fill="none"/></clipPath><linearGradient id="d" x1="-7.721" y1="17.896" x2="-7.688" y2="17.896" xlink:href="#b"/><clipPath id="e"><path d="M253.5,146.155a3.568,3.568,0,0,0,3.442,3.712,3.361,3.361,0,0,0,.621-.034,3.577,3.577,0,0,0-.351-7.118c-.051,0-.1,0-.149,0a3.569,3.569,0,0,0-3.563,3.444m12.708-4.679a3.578,3.578,0,0,0,1.566,6.955,3.312,3.312,0,0,0,.61-.136,3.579,3.579,0,1,0-2.175-6.819m-22.532,1.283a3.589,3.589,0,0,0,1.966,4.675,3.533,3.533,0,0,0,1.834.234,3.582,3.582,0,1,0-3.8-4.908m30.543-5.508,0-.008a3.582,3.582,0,0,0,2.684,6.378,3.544,3.544,0,0,0,1.715-.717,3.58,3.58,0,1,0-4.4-5.652M235.6,136.219a3.575,3.575,0,1,0,2.653-1.18,3.577,3.577,0,0,0-2.653,1.18m44.707-5.7a3.581,3.581,0,1,0,3.029-1.672,3.578,3.578,0,0,0-3.029,1.672m-50.061-3.2a3.577,3.577,0,0,0,2.151,6.708,3.728,3.728,0,0,0,1.195-.379,3.582,3.582,0,0,0-1.677-6.747,3.533,3.533,0,0,0-1.669.418m53.5-5.2a3.588,3.588,0,0,0,2.744,4.259,3.67,3.67,0,0,0,1.242.046,3.581,3.581,0,0,0,.275-7.049,3.659,3.659,0,0,0-.758-.08,3.589,3.589,0,0,0-3.5,2.824m-55.475-5a3.582,3.582,0,1,0,4.04,3.055h-.01a3.582,3.582,0,0,0-4.031-3.055m58.851-8.215a3.583,3.583,0,0,0-3.04,4.049c0,.031.008.072.013.1a3.581,3.581,0,0,0,7.1-.969l-.007-.049c0-.031-.01-.062-.012-.082a3.592,3.592,0,0,0-4.052-3.051m-60.895-.647a3.58,3.58,0,0,0,2.153,5.6,3.613,3.613,0,0,0,1.232.047,3.588,3.588,0,0,0,2.419-5.652Z" transform="translate(-225.182 -108.255)" fill="none"/></clipPath><linearGradient id="f" x1="-5.106" y1="13.063" x2="-5.083" y2="13.063" xlink:href="#b"/><clipPath id="g"><path d="M257.085,157.192a3.327,3.327,0,0,0,3.164,3.491,3.081,3.081,0,0,0,.615-.021,3.329,3.329,0,0,0-.286-6.624c-.056,0-.111,0-.167,0a3.326,3.326,0,0,0-3.326,3.158m12.871-3.857a3.329,3.329,0,0,0,1.1,6.564l.214-.029a3.333,3.333,0,0,0-1.314-6.535m-22.8,1.227a3.332,3.332,0,1,0,4.183-2.177,3.29,3.29,0,0,0-1-.155,3.337,3.337,0,0,0-3.181,2.332m31.7-4.214a3.333,3.333,0,0,0,1.9,6.3,3.688,3.688,0,0,0,1-.3,3.332,3.332,0,1,0-2.9-6m-40.641-.8a3.316,3.316,0,1,0,2.829-1.579,3.322,3.322,0,0,0-2.829,1.579m48.509-4.323a3.336,3.336,0,1,0,2.151-.789,3.337,3.337,0,0,0-2.151.789m-55.952-2.754a3.331,3.331,0,0,0,2.765,5.7,3.266,3.266,0,0,0,1.853-.9,3.329,3.329,0,0,0-4.619-4.8m62.31-4.168a3.33,3.33,0,1,0,4.64-.776,3.32,3.32,0,0,0-4.64.776m-67.749-4.524a3.327,3.327,0,0,0,2.09,6.191,3.273,3.273,0,0,0,1.191-.4,3.329,3.329,0,1,0-3.282-5.792m72.2-3.754a3.325,3.325,0,1,0,3.1-2.13,3.333,3.333,0,0,0-3.1,2.13M222.239,124a3.33,3.33,0,0,0,1.312,6.515,2.9,2.9,0,0,0,.42-.087,3.329,3.329,0,0,0-.866-6.543,3.374,3.374,0,0,0-.866.114m77.533-3.081a3.34,3.34,0,0,0,2.934,3.687,3.292,3.292,0,0,0,.832-.01,3.334,3.334,0,0,0-.067-6.613,3.283,3.283,0,0,0-.378-.02,3.345,3.345,0,0,0-3.321,2.955m-78.117-7.167a3.331,3.331,0,1,0,.093,6.66,3.085,3.085,0,0,0,.409-.034,3.329,3.329,0,0,0-.459-6.626h-.042m-1.857-5.5a3.321,3.321,0,0,0,2.26,1.9,3.468,3.468,0,0,0,1.245.067,3.345,3.345,0,0,0,2.6-1.965Zm81.131,0a3.329,3.329,0,0,0-1.277,3.11c.007.041.011.082.016.123l0,.031a3.331,3.331,0,1,0,6.6-.9l-.01,0c0-.031-.007-.051-.012-.08s-.008-.062-.015-.1a3.289,3.289,0,0,0-1.272-2.18Z" transform="translate(-218.365 -108.255)" fill="none"/></clipPath><linearGradient id="h" x1="-3.742" y1="10.292" x2="-3.725" y2="10.292" xlink:href="#b"/><clipPath id="i"><path d="M260.541,168.257a3.082,3.082,0,0,0,2.9,3.251,2.877,2.877,0,0,0,.593-.02,3.079,3.079,0,0,0-.227-6.126c-.067,0-.132-.007-.2-.007a3.076,3.076,0,0,0-3.066,2.9m12.816-3.282a3.073,3.073,0,1,0,.423-.029,3.083,3.083,0,0,0-.423.029m-22.776,1.079a3.1,3.1,0,0,0,2.2,3.766,3.165,3.165,0,0,0,1.2.074,3.083,3.083,0,1,0-3.408-3.839m32.094-3.287a3.081,3.081,0,0,0,1.42,5.964,3.275,3.275,0,0,0,.588-.142,3.081,3.081,0,0,0-1-5.994,3.06,3.06,0,0,0-1.007.172m-41.415-.806a3.072,3.072,0,0,0,1.417,4.111,3.039,3.039,0,0,0,1.757.286,3.078,3.078,0,0,0,.937-5.822,3.07,3.07,0,0,0-4.111,1.425m50.106-3.192a3.081,3.081,0,1,0,1.554-.423,3.072,3.072,0,0,0-1.554.423m-58.471-2.648a3.081,3.081,0,0,0,2.873,4.91,3.079,3.079,0,0,0-.418-6.129,3.073,3.073,0,0,0-2.455,1.219m66.221-2.971a3.075,3.075,0,0,0,2.46,5.348,3.124,3.124,0,0,0,1.628-.747,3.082,3.082,0,0,0,.25-4.349,3.031,3.031,0,0,0-2.288-1.035,3.072,3.072,0,0,0-2.05.783m-73.279-4.377a3.086,3.086,0,0,0,2.46,5.359,3.029,3.029,0,0,0,1.628-.758,3.077,3.077,0,0,0-4.088-4.6m79.774-2.658,0,.01a1.431,1.431,0,1,0,0-.01m-85.271-5.922a3.081,3.081,0,0,0,1.974,5.712,3.024,3.024,0,0,0,1.141-.4,3.072,3.072,0,0,0,1.092-4.217l0,.01a3.073,3.073,0,0,0-4.209-1.1m90.287-2.228a3.094,3.094,0,0,0,1.415,4.12,3.132,3.132,0,0,0,1.77.284,3.083,3.083,0,1,0-3.186-4.4M216.635,130.7a3.081,3.081,0,0,0,1.412,5.966,3.214,3.214,0,0,0,.6-.142,3.08,3.08,0,1,0-2.01-5.824m97.33-1.7a3.081,3.081,0,0,0,2.192,3.767,3.209,3.209,0,0,0,1.2.074,3.081,3.081,0,0,0,.361-6.033,3.068,3.068,0,0,0-3.758,2.192m-99.119-8.327a3.081,3.081,0,0,0,.843,6.1l.01,0a3.081,3.081,0,0,0-.433-6.132,3.041,3.041,0,0,0-.42.029m100.631-1.116a3.063,3.063,0,0,0,2.885,3.253,3.206,3.206,0,0,0,.6-.023,3.079,3.079,0,0,0-.24-6.124c-.06,0-.121-.007-.181-.007a3.076,3.076,0,0,0-3.068,2.9m-103.7-6.178a3.085,3.085,0,0,0,2.906,3.257,3.775,3.775,0,0,0,.593-.028,3.08,3.08,0,0,0-.237-6.126c-.06,0-.121,0-.18,0a3.089,3.089,0,0,0-3.083,2.9m103.469-5.117a3.058,3.058,0,0,0-.167,1.525l-.012,0c.007.041.021.078.028.121s.007.06.01.08a3.077,3.077,0,1,0,6.1-.832c0-.041-.01-.07-.016-.113s-.01-.08-.015-.119a3.132,3.132,0,0,0-.168-.664Z" transform="translate(-211.774 -108.255)" fill="none"/></clipPath><linearGradient id="j" x1="-2.911" y1="8.496" x2="-2.897" y2="8.496" xlink:href="#b"/><clipPath id="k"><path d="M264,179.317a2.832,2.832,0,0,0,2.645,3,2.681,2.681,0,0,0,.574-.015,2.834,2.834,0,0,0-.211-5.634c-.061,0-.119-.007-.18-.007A2.842,2.842,0,0,0,264,179.317m12.695-2.8a2.829,2.829,0,0,0,.543,5.632c.039-.007.082-.013.111-.015a2.828,2.828,0,0,0-.374-5.631c-.093,0-.186,0-.279.013m-22.667.889a2.824,2.824,0,0,0,2.13,3.387,2.633,2.633,0,0,0,1.015.046,2.83,2.83,0,0,0,.25-5.562,2.775,2.775,0,0,0-.629-.072,2.854,2.854,0,0,0-2.765,2.2m32.207-2.594a2.832,2.832,0,0,0,1.1,5.546c.111-.015.221-.039.33-.064a2.832,2.832,0,0,0-.718-5.572,2.872,2.872,0,0,0-.709.09m-41.737-.914a2.827,2.827,0,1,0,2.618-1.757,2.833,2.833,0,0,0-2.618,1.757m50.869-2.277A2.825,2.825,0,0,0,296.895,177a2.647,2.647,0,0,0,.771-.217,2.827,2.827,0,1,0-2.3-5.165m-59.716-2.707a2.832,2.832,0,1,0,3.89-.932h.01a2.838,2.838,0,0,0-3.9.932m68.219-1.924a2.825,2.825,0,0,0,1.94,5.162,2.72,2.72,0,0,0,1.165-.436,2.827,2.827,0,1,0-3.105-4.725m-76.147-4.408a2.83,2.83,0,0,0,.309,3.995,2.826,2.826,0,1,0-.309-3.995m83.79-1.536a2.831,2.831,0,1,0,1.914-.744,2.831,2.831,0,0,0-1.914.744M220.9,155.066a2.817,2.817,0,1,0,1.819-.667,2.831,2.831,0,0,0-1.819.667m97.214-1.113a2.826,2.826,0,1,0,2.22-1.074,2.825,2.825,0,0,0-2.22,1.074m-102.738-7.391a2.827,2.827,0,0,0,1.834,5.229,2.792,2.792,0,0,0,1.072-.373,2.83,2.83,0,1,0-2.906-4.856M323.5,145.9a2.83,2.83,0,1,0,3.848-1.092A2.829,2.829,0,0,0,323.5,145.9M211.3,137.275a2.826,2.826,0,0,0,1.419,5.428,2.593,2.593,0,0,0,.667-.173,2.829,2.829,0,0,0-1.048-5.456,2.77,2.77,0,0,0-1.038.2m116.225-.186a2.837,2.837,0,0,0,1.7,3.63,2.9,2.9,0,0,0,1.348.145,2.839,2.839,0,0,0,.58-5.475,2.836,2.836,0,0,0-3.628,1.7m-118.762-9.642a2.826,2.826,0,0,0,.986,5.56l.234-.033a2.832,2.832,0,0,0-.6-5.6,2.777,2.777,0,0,0-.619.069m121.328.3a2.831,2.831,0,0,0,2.252,3.308,3.045,3.045,0,0,0,.91.02,2.826,2.826,0,0,0,.134-5.578,2.7,2.7,0,0,0-.533-.052,2.819,2.819,0,0,0-2.764,2.3M207.813,117.339a2.83,2.83,0,0,0,.327,5.65,1.286,1.286,0,0,0,.226-.021,2.83,2.83,0,0,0-.387-5.634c-.054,0-.11,0-.165,0m123.286.776a2.815,2.815,0,0,0,2.754,2.9,2.164,2.164,0,0,0,.461-.021,2.828,2.828,0,0,0-.315-5.631h-.083a2.823,2.823,0,0,0-2.816,2.754M206,108.255a2.819,2.819,0,0,0-.606,1.486l0-.011a2.837,2.837,0,0,0,2.515,3.117,3.331,3.331,0,0,0,.678-.01,2.833,2.833,0,0,0,1.826-4.581Zm124.523,0v0a.508.508,0,0,0,.028.119c0,.021,0,.052,0,.072a2.831,2.831,0,0,0,5.629-.193Z" transform="translate(-205.147 -108.255)" fill="none"/></clipPath><linearGradient id="l" x1="-2.354" y1="7.24" x2="-2.342" y2="7.24" xlink:href="#b"/><clipPath id="m"><path d="M267.5,190.386a2.586,2.586,0,0,0,2.406,2.751,3.074,3.074,0,0,0,.521-.018,2.579,2.579,0,0,0-.173-5.127c-.064,0-.126-.007-.188-.007a2.575,2.575,0,0,0-2.566,2.4m12.515-2.408a2.583,2.583,0,0,0,.353,5.153c.06-.01.121-.018.172-.025a2.58,2.58,0,0,0-.343-5.135c-.06,0-.121,0-.181.007m-22.49.68a2.576,2.576,0,0,0,2,3.053,2.507,2.507,0,0,0,.868.025,2.579,2.579,0,0,0,.181-5.08,2.589,2.589,0,0,0-3.051,2m32.174-2a2.578,2.578,0,0,0,.868,5.08,1.037,1.037,0,0,0,.172-.031,2.579,2.579,0,0,0-.513-5.1,2.529,2.529,0,0,0-.526.056m9.4-2.622a2.576,2.576,0,0,0,1.2,4.983,1.811,1.811,0,0,0,.51-.121,2.578,2.578,0,1,0-1.714-4.863m-51.227,1.541a2.585,2.585,0,0,0,1.563,3.3,2.641,2.641,0,0,0,1.211.123,2.579,2.579,0,1,0-2.774-3.423m60.182-5.42A2.577,2.577,0,0,0,309.591,185a2.486,2.486,0,0,0,.829-.257,2.582,2.582,0,0,0-1.185-4.877,2.553,2.553,0,0,0-1.18.289m-69.315,1.054a2.582,2.582,0,1,0,2.293-1.391,2.57,2.57,0,0,0-2.293,1.391m77.654-6.126a2.58,2.58,0,1,0,1.487-.472,2.584,2.584,0,0,0-1.487.472m-86.116.556a2.578,2.578,0,1,0,2.1-1.087,2.564,2.564,0,0,0-2.1,1.087m93.688-6.719a2.587,2.587,0,0,0-.131,3.653,2.576,2.576,0,0,0,3.653.121,2.581,2.581,0,0,0-3.522-3.774m-101.31.067a2.574,2.574,0,1,0,1.883-.817,2.556,2.556,0,0,0-1.883.817m107.968-7.195a2.579,2.579,0,1,0,2.007-.954,2.578,2.578,0,0,0-2.007.954M216,161.361a2.582,2.582,0,1,0,1.626-.582,2.584,2.584,0,0,0-1.626.582m120.267-7.546a2.592,2.592,0,1,0,2.2-1.231,2.586,2.586,0,0,0-2.2,1.231M210.462,152.9a2.582,2.582,0,0,0,1.69,4.764,2.641,2.641,0,0,0,.99-.351,2.582,2.582,0,0,0-1.345-4.789,2.552,2.552,0,0,0-1.335.376m130.321-7.742a2.57,2.57,0,0,0,1.329,3.391,2.539,2.539,0,0,0,1.376.194,2.58,2.58,0,1,0-2.705-3.586m-134.657-1.4a2.578,2.578,0,0,0,1.37,4.92,2.34,2.34,0,0,0,.675-.195,2.574,2.574,0,1,0-2.045-4.725m137.944-7.8a2.582,2.582,0,0,0,1.783,3.186,2.632,2.632,0,0,0,1.04.074,2.582,2.582,0,1,0-2.823-3.259m-140.992-1.852a2.578,2.578,0,0,0,1.038,5.039c.111-.015.23-.043.35-.07a2.579,2.579,0,0,0-1.388-4.969m142.983-7.71a2.573,2.573,0,0,0,2.208,2.9,2.346,2.346,0,0,0,.7.007,2.584,2.584,0,0,0,0-5.117,2.526,2.526,0,0,0-.348-.025,2.585,2.585,0,0,0-2.563,2.233m-144.7-2.272a2.576,2.576,0,1,0,.351-.025,2.559,2.559,0,0,0-.351.025M349.3,114.08a2.579,2.579,0,0,0,0,5.158c.124-.007.235-.01.358-.028a2.578,2.578,0,0,0-.345-5.131H349.3m-148.285-.062a2.568,2.568,0,0,0-2.573,2.576l0,.008a2.573,2.573,0,0,0,2.584,2.573,3.241,3.241,0,0,0,.347-.026,2.577,2.577,0,0,0-.342-5.131h-.018m-1.208-5.763a2.587,2.587,0,0,0,1.54.806,2.792,2.792,0,0,0,.7,0,2.573,2.573,0,0,0,1.541-.8Zm146.855,0a2.583,2.583,0,0,0,3.9,0Z" transform="translate(-198.444 -108.255)" fill="none"/></clipPath><linearGradient id="n" x1="-1.952" y1="6.306" x2="-1.942" y2="6.306" xlink:href="#b"/><clipPath id="o"><path d="M280.642,199.5a2.329,2.329,0,0,0,.069,4.657c.1,0,.195-.008.286-.02a2.33,2.33,0,0,0-.317-4.637h-.038m-12.556,1.63a2.316,2.316,0,0,0,2.068,2.56,1.975,1.975,0,0,0,.556,0,2.329,2.329,0,0,0-.064-4.624c-.083-.008-.165-.013-.247-.013a2.326,2.326,0,0,0-2.313,2.081m22.534-2.394a2.327,2.327,0,1,0,.637,4.609l0,.01a2.331,2.331,0,0,0-.322-4.64,2.318,2.318,0,0,0-.317.021m-32.65.42a2.333,2.333,0,0,0,1.75,2.8,2.267,2.267,0,0,0,.83.031,2.325,2.325,0,0,0,.219-4.57,2.291,2.291,0,0,0-.533-.062,2.33,2.33,0,0,0-2.267,1.8m42.474-2.368a2.329,2.329,0,0,0,.9,4.562,2.255,2.255,0,0,0,.27-.056,2.329,2.329,0,0,0-.582-4.581,2.352,2.352,0,0,0-.588.075m-52.27-.817a2.327,2.327,0,0,0,1.4,2.981,2.271,2.271,0,0,0,1.108.116,2.326,2.326,0,0,0,.477-4.491,2.271,2.271,0,0,0-.8-.144,2.331,2.331,0,0,0-2.185,1.538m61.782-2.293a2.329,2.329,0,0,0,1.167,4.475,2.25,2.25,0,0,0,.547-.145,2.328,2.328,0,1,0-1.714-4.33m-71.118-2.054a2.334,2.334,0,0,0,1.023,3.123,2.275,2.275,0,0,0,1.371.234,2.329,2.329,0,0,0,.74-4.384,2.328,2.328,0,0,0-3.135,1.026m80.178-2.189a2.332,2.332,0,0,0,1.43,4.357,2.377,2.377,0,0,0,.8-.265,2.33,2.33,0,1,0-2.228-4.093m-88.922-3.253a2.326,2.326,0,0,0,.647,3.228,2.279,2.279,0,0,0,1.607.379,2.326,2.326,0,0,0,.976-4.241,2.3,2.3,0,0,0-1.293-.4,2.335,2.335,0,0,0-1.937,1.031m97.4-2.054a2.322,2.322,0,1,0,1.357-.436,2.326,2.326,0,0,0-1.357.436m-105.43-4.388a2.331,2.331,0,0,0,2.087,3.825,2.3,2.3,0,0,0,1.446-.794,2.327,2.327,0,0,0-3.534-3.03m113.21-1.914a2.329,2.329,0,1,0,3.284.147,2.3,2.3,0,0,0-1.711-.755,2.32,2.32,0,0,0-1.572.608m-120.4-5.443a2.328,2.328,0,0,0,1.878,4.027,2.291,2.291,0,0,0,1.259-.595,2.329,2.329,0,0,0-1.574-4.045,2.292,2.292,0,0,0-1.562.613m127.361-1.739a2.331,2.331,0,0,0,2.089,3.825,2.273,2.273,0,0,0,1.446-.794,2.328,2.328,0,1,0-3.535-3.03M208.613,164.21a2.329,2.329,0,0,0,1.675,4.2,2.268,2.268,0,0,0,1.035-.409,2.33,2.33,0,1,0-2.71-3.79M348.3,162.666a2.328,2.328,0,0,0,.646,3.228,2.281,2.281,0,0,0,1.607.379,2.327,2.327,0,0,0,.976-4.243,2.3,2.3,0,0,0-1.293-.4,2.332,2.332,0,0,0-1.935,1.031m-144.912-7.33a2.33,2.33,0,1,0,3.164.928l0,.01a2.346,2.346,0,0,0-2.058-1.223,2.306,2.306,0,0,0-1.108.284m149.973-1.309A2.325,2.325,0,1,0,356.483,153a2.284,2.284,0,0,0-1.049-.255,2.326,2.326,0,0,0-2.074,1.278M199.276,145.9a2.33,2.33,0,0,0,1.178,4.473,2.619,2.619,0,0,0,.538-.136,2.332,2.332,0,0,0-1.716-4.338m158.059-1.066a2.335,2.335,0,0,0,1.4,2.993,2.438,2.438,0,0,0,1.108.116,2.332,2.332,0,1,0-2.506-3.109m-160.99-8.8a2.329,2.329,0,0,0,.9,4.562,1.309,1.309,0,0,0,.281-.059,2.327,2.327,0,0,0-.59-4.578,2.365,2.365,0,0,0-.59.075m163.832-.793a2.329,2.329,0,1,0,2.27-1.811,2.332,2.332,0,0,0-2.27,1.811m-167.555-6.721,0-.01Zm1.987-2.63a2.328,2.328,0,1,0,.319-.021,2.333,2.333,0,0,0-.319.021m167.225-.534a2.344,2.344,0,0,0,2.071,2.571,2.594,2.594,0,0,0,.564-.016,2.33,2.33,0,0,0-.075-4.624c-.082-.008-.164-.013-.244-.013a2.333,2.333,0,0,0-2.316,2.082m-167.74-9.743a2.327,2.327,0,0,0,.077,4.653c.093,0,.186,0,.276-.016a2.33,2.33,0,0,0-.312-4.639l-.041,0m170.481-2.617a2.333,2.333,0,0,0,.07,4.665,2.227,2.227,0,0,0,.276-.028,2.33,2.33,0,0,0-.309-4.639l-.038,0m-172.246-4.738a2.337,2.337,0,0,0,2.015,1.718,2.612,2.612,0,0,0,.554-.013,2.332,2.332,0,0,0,1.937-1.7Z" transform="translate(-191.811 -108.255)" fill="none"/></clipPath><linearGradient id="p" x1="-1.65" y1="5.586" x2="-1.641" y2="5.586" xlink:href="#b"/><clipPath id="q"><path d="M283.871,209.526a2.08,2.08,0,1,0,.02,4.16c.093,0,.186-.007.276-.018a2.081,2.081,0,0,0-.273-4.142h-.023m-12.3,1.36a2.074,2.074,0,0,0,1.847,2.282l.008,0a1.928,1.928,0,0,0,.5-.007,2.08,2.08,0,0,0-.069-4.129c-.07-.007-.141-.01-.209-.01a2.075,2.075,0,0,0-2.073,1.865m22.31-1.934a2.077,2.077,0,1,0,.461,4.129.41.41,0,0,0,.049-.007,2.077,2.077,0,0,0-.51-4.122m-32.413.119a2.082,2.082,0,1,0,2.471-1.594l0-.01a2.081,2.081,0,0,0-2.47,1.6m42.313-1.747a2.08,2.08,0,0,0,.724,4.093.891.891,0,0,0,.17-.034,2.077,2.077,0,0,0-.445-4.107,2.113,2.113,0,0,0-.449.049m-52.15-1.142a2.086,2.086,0,0,0,1.329,2.63,2.013,2.013,0,0,0,.927.078,2.079,2.079,0,1,0-2.256-2.708m61.829-1.507a2.067,2.067,0,0,0-1.321,2.622,2.1,2.1,0,0,0,2.262,1.411,2.243,2.243,0,0,0,.368-.092,2.076,2.076,0,0,0-.654-4.049,2.041,2.041,0,0,0-.655.108m-71.311-2.409a2.076,2.076,0,1,0,1.9-1.223,2.072,2.072,0,0,0-1.9,1.223m80.644-1.273V201a2.079,2.079,0,0,0,1.731,3.78,2.083,2.083,0,0,0-1.731-3.79m-89.654-3.625a2.077,2.077,0,0,0,2.071,3.105,2.1,2.1,0,0,0,1.522-1.012,2.081,2.081,0,0,0-.749-2.842,2.056,2.056,0,0,0-1.044-.284,2.084,2.084,0,0,0-1.8,1.033m98.534-1.026,0,.01a2.08,2.08,0,0,0-.724,2.849,2.1,2.1,0,0,0,2.071,1,2.052,2.052,0,0,0,.776-.271,2.083,2.083,0,0,0-2.125-3.583m-106.97-4.8a2.068,2.068,0,1,0,1.669-.848,2.069,2.069,0,0,0-1.669.848m115.313-.763a2.081,2.081,0,0,0,1.527,3.727,2.03,2.03,0,0,0,.964-.4,2.074,2.074,0,0,0,.418-2.909,2.1,2.1,0,0,0-1.67-.832,2.041,2.041,0,0,0-1.239.415m-123.093-5.92a2.076,2.076,0,0,0,1.821,3.459,2.044,2.044,0,0,0,1.249-.654,2.085,2.085,0,0,0-.132-2.939,2.059,2.059,0,0,0-1.4-.546,2.089,2.089,0,0,0-1.54.68m130.793-.505a2.076,2.076,0,1,0,2.929.1,2.064,2.064,0,0,0-2.929-.1M209.9,177.378a2.074,2.074,0,1,0,1.371-.523,2.056,2.056,0,0,0-1.371.523m144.786-.242a2.081,2.081,0,1,0,1.574-.716,2.077,2.077,0,0,0-1.574.716M203.708,169.2a2.085,2.085,0,0,0,1.492,3.762,2.131,2.131,0,0,0,.919-.364,2.083,2.083,0,0,0-2.411-3.4m157.157.015a2.072,2.072,0,0,0,.508,2.9,2.061,2.061,0,0,0,2.9-.508,2.08,2.08,0,0,0-3.4-2.39m-162.443-8.8a2.076,2.076,0,0,0,1.3,3.869,1.912,1.912,0,0,0,.729-.242,2.078,2.078,0,1,0-2.028-3.627m167.748.291a2.072,2.072,0,0,0,.807,2.824,2.118,2.118,0,0,0,1.29.237,2.078,2.078,0,1,0-2.1-3.061m-172.057-9.6a2.083,2.083,0,0,0,1.089,3.981,2.049,2.049,0,0,0,.536-.157,2.08,2.08,0,0,0-.812-3.993,2.045,2.045,0,0,0-.812.168m176.427.569a2.085,2.085,0,0,0,1.111,2.721,2.053,2.053,0,0,0,1.082.141,2.078,2.078,0,1,0-2.193-2.862M190.822,141.405a2.074,2.074,0,0,0,.881,4.04,1.918,1.918,0,0,0,.332-.065,2.08,2.08,0,0,0-.6-4.066,2.126,2.126,0,0,0-.608.092m183.105.822a2.078,2.078,0,0,0,1.393,2.591,2.151,2.151,0,0,0,.873.067,2.079,2.079,0,1,0-2.265-2.658M188.581,131.394a2.078,2.078,0,0,0,.673,4.1l.1-.013a2.08,2.08,0,0,0-.382-4.124,2.018,2.018,0,0,0-.392.038m187.7,1.09a2.079,2.079,0,1,0,2.429-1.672,2.12,2.12,0,0,0-.378-.033,2.08,2.08,0,0,0-2.051,1.7M187.4,121.207a2.079,2.079,0,1,0,.348,4.143c.041-.007.07-.011.113-.015a2.077,2.077,0,0,0-.286-4.135c-.059,0-.116,0-.175.007m190.184,1.327a2.091,2.091,0,0,0,1.911,2.231,2.3,2.3,0,0,0,.451-.02,2.09,2.09,0,0,0,1.79-1.9l-.011,0a2.074,2.074,0,0,0-1.911-2.231c-.049,0-.1-.007-.149-.007a2.09,2.09,0,0,0-2.081,1.927m-192.407-9.54a2.081,2.081,0,0,0,2.028,2.122c.113,0,.216-.008.329-.023a2.08,2.08,0,0,0-.237-4.14h-.051a2.071,2.071,0,0,0-2.069,2.041m194.649-2.63a2.078,2.078,0,1,0,.134,4.153,1.557,1.557,0,0,0,.214-.02,2.076,2.076,0,0,0-.289-4.134h-.059" transform="translate(-185.175 -110.364)" fill="none"/></clipPath><linearGradient id="r" x1="-1.419" y1="5.126" x2="-1.411" y2="5.126" xlink:href="#b"/><clipPath id="s"><path d="M285.238,223.749a1.823,1.823,0,0,0,1.816,1.832,2.2,2.2,0,0,0,.255-.015,1.83,1.83,0,0,0-.239-3.643h-.011a1.816,1.816,0,0,0-1.821,1.826m11.876-2.251a1.83,1.83,0,1,0,.322,3.645.4.4,0,0,1,.044,0,.146.146,0,0,0,.038,0,1.834,1.834,0,0,0-.25-3.65c-.051,0-.1,0-.154,0m-22.075,1.53a1.826,1.826,0,0,0,1.633,2,1.985,1.985,0,0,0,.43-.007,1.827,1.827,0,0,0-.062-3.628c-.065-.007-.132-.01-.2-.01a1.822,1.822,0,0,0-1.8,1.643m32.034-2.886a1.827,1.827,0,0,0,.574,3.607c.031,0,.062-.008.091-.013a1.829,1.829,0,0,0-.324-3.627,1.738,1.738,0,0,0-.342.033m-42.121,1.195a1.818,1.818,0,0,0,1.438,2.151,1.733,1.733,0,0,0,.6.023,1.832,1.832,0,0,0,.116-3.611,1.887,1.887,0,0,0-.355-.034,1.837,1.837,0,0,0-1.8,1.471m51.9-3.486a1.822,1.822,0,1,0,.5-.072,1.781,1.781,0,0,0-.5.072m-61.774.838a1.831,1.831,0,0,0,1.216,2.285,1.859,1.859,0,0,0,.781.057,1.825,1.825,0,0,0,.276-3.558,1.877,1.877,0,0,0-.531-.078,1.814,1.814,0,0,0-1.742,1.294m71.293-4.055a1.826,1.826,0,0,0,.912,3.511,1.59,1.59,0,0,0,.428-.11,1.826,1.826,0,0,0,1.035-2.365,1.848,1.848,0,0,0-1.71-1.164,1.8,1.8,0,0,0-.665.127m-80.874.481a1.83,1.83,0,0,0,1.937,2.506,1.834,1.834,0,0,0,.449-3.509,1.844,1.844,0,0,0-.691-.134,1.821,1.821,0,0,0-1.695,1.138m90.045-4.593a1.83,1.83,0,0,0,1.077,3.445,1.725,1.725,0,0,0,.572-.18,1.829,1.829,0,0,0-1.649-3.266m-99.244.123a1.841,1.841,0,0,0,.77,2.47,1.868,1.868,0,0,0,1.1.191,1.827,1.827,0,0,0,.6-3.429,1.781,1.781,0,0,0-.848-.214,1.834,1.834,0,0,0-1.62.982m107.978-5.085a1.826,1.826,0,0,0,1.219,3.355,1.857,1.857,0,0,0,.737-.265,1.832,1.832,0,0,0,.561-2.527,1.822,1.822,0,0,0-2.517-.564m-116.706-.242a1.825,1.825,0,0,0,.53,2.532,1.845,1.845,0,0,0,1.244.284,1.831,1.831,0,0,0,.758-3.346,1.823,1.823,0,0,0-2.532.53M352.5,199.772l0,.011a1.827,1.827,0,0,0,1.36,3.256,1.887,1.887,0,0,0,.878-.369,1.83,1.83,0,0,0-1.126-3.277,1.816,1.816,0,0,0-1.113.379m-133.116-.577a1.832,1.832,0,0,0,1.68,2.953,1.857,1.857,0,0,0,1.183-.677,1.829,1.829,0,1,0-2.864-2.277m140.741-5.951.01,0a1.827,1.827,0,0,0,1.5,3.143,1.872,1.872,0,0,0,1.005-.479,1.828,1.828,0,0,0,.07-2.582,1.8,1.8,0,0,0-1.327-.577,1.851,1.851,0,0,0-1.259.5m-148.31-.925a1.831,1.831,0,1,0,2.578-.042,1.822,1.822,0,0,0-2.578.042m155.3-6.3a1.824,1.824,0,0,0,.163,2.573,1.851,1.851,0,0,0,1.461.44,1.807,1.807,0,0,0,1.123-.606,1.826,1.826,0,1,0-2.747-2.406M204.92,184.764a1.831,1.831,0,0,0,1.437,3.2,1.764,1.764,0,0,0,.941-.427,1.827,1.827,0,1,0-2.378-2.775m168.454-6.613a1.837,1.837,0,0,0,.414,2.56,1.811,1.811,0,0,0,1.309.325,1.826,1.826,0,0,0,.827-3.3,1.806,1.806,0,0,0-1.062-.343,1.841,1.841,0,0,0-1.487.754m-174.593-1.561a1.829,1.829,0,0,0,1.3,3.3,1.732,1.732,0,0,0,.8-.315,1.827,1.827,0,1,0-2.105-2.988m180.088-6.85a1.835,1.835,0,0,0,.652,2.507,1.882,1.882,0,0,0,1.174.23,1.828,1.828,0,1,0-1.826-2.738m-185.418-1.875a1.823,1.823,0,1,0,.909-.242,1.824,1.824,0,0,0-.909.242m190.094-7.022a1.827,1.827,0,1,0,2.434-.889,1.868,1.868,0,0,0-.77-.167,1.829,1.829,0,0,0-1.664,1.056m-194.563-2.172a1.82,1.82,0,0,0-.917,2.412l-.01,0a1.829,1.829,0,1,0,3.338-1.5,1.8,1.8,0,0,0-1.659-1.077,1.833,1.833,0,0,0-.752.162m198.371-7.133a1.831,1.831,0,1,0,3.452,1.219l0,.008a1.83,1.83,0,0,0-1.724-2.443,1.829,1.829,0,0,0-1.729,1.216m-201.944-2.45a1.833,1.833,0,0,0,.835,3.552,1.409,1.409,0,0,0,.338-.087,1.828,1.828,0,0,0-.592-3.56,1.853,1.853,0,0,0-.582.095m204.843-7.162a1.839,1.839,0,0,0,1.332,2.218,2.051,2.051,0,0,0,.695.039,1.833,1.833,0,0,0,.2-3.591,1.931,1.931,0,0,0-.449-.054,1.834,1.834,0,0,0-1.778,1.388m-207.478-2.716a1.831,1.831,0,0,0,.655,3.6,1.429,1.429,0,0,0,.181-.036,1.829,1.829,0,0,0-.425-3.609,1.86,1.86,0,0,0-.412.046m209.449-7.139a1.833,1.833,0,0,0,1.54,2.077,1.9,1.9,0,0,0,.517.011,1.844,1.844,0,0,0,1.572-1.543l-.011,0a1.833,1.833,0,0,0-1.531-2.089,1.764,1.764,0,0,0-.262-.02,1.846,1.846,0,0,0-1.824,1.561M181.07,129.136a1.84,1.84,0,1,0,.25-.016,1.852,1.852,0,0,0-.25.016m212.179-7.059a1.817,1.817,0,0,0,1.724,1.917,1.316,1.316,0,0,0,.35-.008,1.826,1.826,0,0,0-.157-3.633c-.036,0-.072,0-.106,0a1.817,1.817,0,0,0-1.811,1.726M180.328,118.94a1.828,1.828,0,0,0,.157,3.653c.052,0,.114,0,.165-.01a1.832,1.832,0,0,0-.237-3.646c-.029,0-.057,0-.085,0m214.73-8.819a1.83,1.83,0,0,0,.147,3.658,1.375,1.375,0,0,0,.175-.015,1.839,1.839,0,0,0,1.584-1.894l-.01,0a1.823,1.823,0,0,0-1.816-1.752c-.028,0-.054,0-.08,0m-216.425.329a1.813,1.813,0,0,0,1.724,1.916,1.375,1.375,0,0,0,.348,0,1.832,1.832,0,0,0-.157-3.645c-.029,0-.057,0-.087,0a1.832,1.832,0,0,0-1.829,1.737" transform="translate(-178.579 -108.712)" fill="none"/></clipPath><linearGradient id="t" x1="-1.227" y1="4.577" x2="-1.22" y2="4.577" xlink:href="#b"/><clipPath id="u"><path d="M288.737,235.119a1.574,1.574,0,0,0,1.558,1.6,2.133,2.133,0,0,0,.235-.011,1.581,1.581,0,0,0-.191-3.146h-.01a1.594,1.594,0,0,0-1.592,1.558m10.192-.165a1.586,1.586,0,0,0,1.693,1.458l.1-.015a1.572,1.572,0,0,0-.335-3.125l.01-.011a1.593,1.593,0,0,0-1.469,1.693m-20.359-.539a1.578,1.578,0,0,0,1.409,1.724,1.552,1.552,0,0,0,.369-.008,1.578,1.578,0,0,0-.057-3.133,1.337,1.337,0,0,0-.16-.008,1.57,1.57,0,0,0-1.561,1.425m31.823-2.314a1.583,1.583,0,0,0,.458,3.132.241.241,0,0,0,.041,0l-.01,0a1.582,1.582,0,0,0-.253-3.145,1.646,1.646,0,0,0-.235.016m-41.906.726a1.574,1.574,0,0,0,1.26,1.836,1.4,1.4,0,0,0,.507.013,1.574,1.574,0,0,0,.08-3.109,1.494,1.494,0,0,0-.294-.028,1.585,1.585,0,0,0-1.553,1.288m51.768-2.718a1.58,1.58,0,0,0,.588,3.1c.06-.007.108-.024.168-.033a1.58,1.58,0,0,0-.757-3.068m-61.669.258a1.583,1.583,0,0,0,1.1,1.952,1.616,1.616,0,0,0,.633.036,1.573,1.573,0,0,0,.209-3.076l0-.01a1.566,1.566,0,0,0-.414-.056,1.589,1.589,0,0,0-1.527,1.154m71.322-3.091a1.577,1.577,0,1,0,.51-.083,1.642,1.642,0,0,0-.51.083m-80.979-.216a1.59,1.59,0,0,0,.927,2.038,1.5,1.5,0,0,0,.763.09,1.58,1.58,0,1,0-1.69-2.128m90.346-3.439a1.577,1.577,0,0,0,.853,3,1.6,1.6,0,0,0,.425-.119,1.577,1.577,0,1,0-1.278-2.883m-99.682-.672a1.591,1.591,0,0,0,.75,2.1,1.581,1.581,0,0,0,1.361-2.854,1.584,1.584,0,0,0-2.112.752m108.7-3.784a1.58,1.58,0,1,0,2.144.624,1.571,1.571,0,0,0-2.144-.624m-117.643-1.134a1.582,1.582,0,0,0,1.569,2.372,1.577,1.577,0,0,0,.59-2.924,1.575,1.575,0,0,0-2.159.552m126.24-4.084a1.58,1.58,0,0,0,1.092,2.878,1.58,1.58,0,0,0,1.1-2.437,1.582,1.582,0,0,0-2.19-.441M222.16,212.384a1.591,1.591,0,0,0,.374,2.2l.008,0a1.53,1.53,0,0,0,1.12.27,1.572,1.572,0,0,0,.7-2.846,1.544,1.544,0,0,0-.909-.294,1.6,1.6,0,0,0-1.3.667m142.862-4.377-.011,0a1.584,1.584,0,0,0,1.206,2.8,1.522,1.522,0,0,0,.768-.333,1.579,1.579,0,0,0-.984-2.815,1.554,1.554,0,0,0-.979.345m-150.835-1.981a1.579,1.579,0,1,0,2.411,2.04,1.573,1.573,0,0,0-1.2-2.6,1.571,1.571,0,0,0-1.208.559m158.407-4.634A1.577,1.577,0,0,0,373.9,204.1a1.61,1.61,0,0,0,.869-.417,1.579,1.579,0,0,0-2.175-2.288m-165.81-2.376a1.565,1.565,0,0,0-.007,2.223,1.578,1.578,0,1,0,1.116-2.685,1.555,1.555,0,0,0-1.11.463m172.8-4.869a1.577,1.577,0,0,0,2.357,2.1,1.575,1.575,0,0,0-1.18-2.628,1.552,1.552,0,0,0-1.177.531m-179.578-2.764a1.586,1.586,0,0,0-.19,2.229,1.553,1.553,0,0,0,1.414.548,1.5,1.5,0,0,0,.806-.358,1.578,1.578,0,0,0-1.018-2.783,1.588,1.588,0,0,0-1.012.365m185.917-5.052a1.579,1.579,0,0,0,.322,2.211,1.632,1.632,0,0,0,1.164.294,1.56,1.56,0,0,0,1.048-.616,1.58,1.58,0,1,0-2.533-1.889m-192-3.119a1.576,1.576,0,0,0,1.121,2.854,1.475,1.475,0,0,0,.685-.268,1.577,1.577,0,1,0-1.806-2.586M391.573,178a1.581,1.581,0,0,0,.513,2.175,1.554,1.554,0,0,0,1.038.219,1.577,1.577,0,0,0-.208-3.141,1.57,1.57,0,0,0-1.344.747m-203.019-3.458a1.579,1.579,0,0,0,1.007,2.932,1.559,1.559,0,0,0,.572-.2,1.577,1.577,0,0,0-1.579-2.731m207.937-5.315a1.577,1.577,0,0,0,2.819,1.415,1.587,1.587,0,0,0-.7-2.118,1.566,1.566,0,0,0-2.118.7m-212.535-3.787a1.575,1.575,0,0,0,.881,2.989,1.51,1.51,0,0,0,.454-.136,1.573,1.573,0,0,0-.667-3,1.6,1.6,0,0,0-.668.147m216.679-5.389a1.587,1.587,0,0,0,.879,2.054,1.554,1.554,0,0,0,.8.1,1.577,1.577,0,0,0,.379-3.029,1.562,1.562,0,0,0-.583-.113,1.586,1.586,0,0,0-1.471.99m-220.464-4.085a1.579,1.579,0,0,0,.745,3.05,1.417,1.417,0,0,0,.338-.088,1.577,1.577,0,0,0-1.084-2.962m223.814-5.415a1.569,1.569,0,0,0,1.04,1.969,1.544,1.544,0,0,0,.677.054,1.579,1.579,0,0,0-.214-3.143,1.561,1.561,0,0,0-1.5,1.12m-226.774-4.344a1.583,1.583,0,0,0,.619,3.1,1.126,1.126,0,0,0,.2-.049,1.579,1.579,0,0,0-.407-3.1,1.55,1.55,0,0,0-.41.056m229.275-5.4a1.571,1.571,0,0,0,1.223,1.862,1.408,1.408,0,0,0,.539.029,1.575,1.575,0,0,0,1.322-1.242h.01a1.576,1.576,0,0,0-1.224-1.871,1.515,1.515,0,0,0-.33-.036,1.581,1.581,0,0,0-1.54,1.259M175.1,136.237a1.577,1.577,0,0,0,.5,3.115l.062-.008a1.579,1.579,0,0,0-.273-3.133,1.688,1.688,0,0,0-.284.026m233.038-5.354a1.589,1.589,0,0,0,1.383,1.76,1.821,1.821,0,0,0,.4,0,1.575,1.575,0,0,0-.025-3.127,1.629,1.629,0,0,0-.2-.013,1.578,1.578,0,0,0-1.561,1.384m-234.3-4.769a1.577,1.577,0,0,0,.3,3.14l.06-.007a1.578,1.578,0,0,0-.2-3.141,1.307,1.307,0,0,0-.159.008m235.091-5.255v-.01a1.572,1.572,0,0,0,1.52,1.636,1.288,1.288,0,0,0,.276-.018,1.577,1.577,0,0,0-.16-3.138l-.047,0a1.579,1.579,0,0,0-1.589,1.531M173.45,115.919a1.58,1.58,0,1,0,.018,3.159,1.506,1.506,0,0,0,.2-.018,1.563,1.563,0,0,0,1.36-1.576,1.58,1.58,0,0,0-1.574-1.566h-.008m236.9-6.788a1.577,1.577,0,1,0,.162,3.15.448.448,0,0,0,.132-.008,1.579,1.579,0,0,0-.226-3.143l-.069,0m-237.805-.876a1.561,1.561,0,0,0,1.139.629,1.939,1.939,0,0,0,.338-.015,1.573,1.573,0,0,0,1.046-.615Z" transform="translate(-171.876 -108.255)" fill="none"/></clipPath><linearGradient id="v" x1="-1.07" y1="4.177" x2="-1.064" y2="4.177" xlink:href="#b"/><clipPath id="w"><path d="M292.2,246.207a1.332,1.332,0,0,0,1.306,1.357,1.327,1.327,0,0,0,.051-2.653l-.044,0a1.319,1.319,0,0,0-1.312,1.3m11.418-1.507.013.008a1.326,1.326,0,0,0,.145,2.648h.01c.029,0,.06-.008.1-.015a1.316,1.316,0,0,0,1.139-1.391,1.337,1.337,0,0,0-1.34-1.252c-.023,0-.046,0-.069,0m-20.122-.384a1.309,1.309,0,0,0-1.443,1.185,1.325,1.325,0,0,0,1.187,1.456,1.756,1.756,0,0,0,.307-.011,1.329,1.329,0,0,0-.052-2.64Zm30.154-.593a1.327,1.327,0,0,0,.358,2.63l0,.01a1.338,1.338,0,0,0,1.133-1.505,1.321,1.321,0,0,0-1.309-1.146,1.375,1.375,0,0,0-.183.011m-41.67.27a1.323,1.323,0,0,0,1.075,1.541,1.076,1.076,0,0,0,.415.016,1.327,1.327,0,0,0,.052-2.622,1.275,1.275,0,0,0-.235-.021,1.322,1.322,0,0,0-1.308,1.085m51.595-2.023a1.328,1.328,0,0,0,.449,2.615l.111-.016a1.329,1.329,0,0,0-.286-2.628,1.306,1.306,0,0,0-.275.029m-61.514-.268a1.329,1.329,0,0,0,.941,1.623,1.3,1.3,0,0,0,.518.031,1.326,1.326,0,0,0,.152-2.6h.01a1.364,1.364,0,0,0-.35-.046,1.3,1.3,0,0,0-1.272.987m71.262-2.247a1.33,1.33,0,0,0,.559,2.591A1.946,1.946,0,0,0,334.1,242a1.328,1.328,0,0,0-.386-2.6,1.3,1.3,0,0,0-.384.057m-80.98-.822a1.327,1.327,0,0,0,.819,1.69,1.441,1.441,0,0,0,.614.06,1.328,1.328,0,1,0-1.433-1.75m90.5-2.455a1.324,1.324,0,0,0-.753,1.72,1.339,1.339,0,0,0,1.422.837.976.976,0,0,0,.3-.083,1.327,1.327,0,1,0-.966-2.473M242.915,234.8a1.318,1.318,0,0,0,.682,1.751l-.01,0a1.372,1.372,0,0,0,.714.1,1.331,1.331,0,0,0,.364-2.532,1.364,1.364,0,0,0-.533-.109,1.324,1.324,0,0,0-1.218.791m109.176-2.643a1.328,1.328,0,0,0,.755,2.512,1.133,1.133,0,0,0,.394-.126l0,.01a1.329,1.329,0,0,0-.575-2.528,1.32,1.32,0,0,0-.575.132m-118.283-1.912a1.326,1.326,0,0,0,.534,1.8,1.38,1.38,0,0,0,.814.147,1.33,1.33,0,1,0-1.348-1.948m127.163-2.821a1.331,1.331,0,0,0,.842,2.47,1.468,1.468,0,0,0,.492-.17,1.329,1.329,0,0,0-1.334-2.3M225.08,224.989a1.328,1.328,0,0,0,.405,1.839,1.285,1.285,0,0,0,.892.2,1.329,1.329,0,1,0-1.3-2.036M369.447,222a1.337,1.337,0,0,0-.335,1.849,1.354,1.354,0,0,0,1.281.557,1.311,1.311,0,0,0,.579-.224,1.328,1.328,0,0,0-.77-2.414,1.341,1.341,0,0,0-.755.232M216.8,219.075a1.322,1.322,0,0,0,.255,1.86,1.33,1.33,0,0,0,1.858-.253,1.327,1.327,0,1,0-2.113-1.607m160.691-3.143a1.325,1.325,0,0,0,1.02,2.341,1.3,1.3,0,0,0,.66-.284,1.328,1.328,0,0,0-1.68-2.056M209,212.528a1.329,1.329,0,0,0,.113,1.88,1.3,1.3,0,0,0,1.051.32,1.356,1.356,0,0,0,.819-.43,1.329,1.329,0,1,0-1.983-1.77m176.015-3.277a1.324,1.324,0,1,0,.919-.374,1.3,1.3,0,0,0-.919.374M201.74,205.4a1.335,1.335,0,0,0,1.1,2.28,1.4,1.4,0,0,0,.734-.358,1.329,1.329,0,0,0-1.837-1.922m190.269-3.4a1.327,1.327,0,0,0,1.165,2.2,1.327,1.327,0,0,0-.18-2.643,1.306,1.306,0,0,0-.986.443m-196.951-4.276a1.331,1.331,0,0,0,1.018,2.344,1.374,1.374,0,0,0,.673-.289,1.327,1.327,0,0,0,.178-1.867,1.344,1.344,0,0,0-1.033-.484,1.32,1.32,0,0,0-.837.3m203.346-3.5a1.343,1.343,0,0,0,.253,1.86,1.34,1.34,0,0,0,1.871-.257,1.352,1.352,0,0,0-.257-1.868,1.342,1.342,0,0,0-1.868.265M189,189.544a1.331,1.331,0,0,0-.325,1.857v-.01a1.3,1.3,0,0,0,1.27.557,1.27,1.27,0,0,0,.577-.222,1.329,1.329,0,0,0-.765-2.421,1.317,1.317,0,0,0-.757.239m215.185-3.588a1.332,1.332,0,1,0,1.832-.394,1.3,1.3,0,0,0-.713-.212,1.342,1.342,0,0,0-1.12.606m-220.573-5.037a1.333,1.333,0,0,0,.852,2.468,1.5,1.5,0,0,0,.492-.168,1.335,1.335,0,0,0,.469-1.826l0,.01a1.334,1.334,0,0,0-1.152-.662,1.312,1.312,0,0,0-.662.178M409.3,177.278a1.325,1.325,0,0,0,1.347,1.948,1.33,1.33,0,0,0,.454-2.481,1.342,1.342,0,0,0-.639-.163,1.315,1.315,0,0,0-1.162.7M178.92,171.9a1.327,1.327,0,0,0,.755,2.512,1.387,1.387,0,0,0,.4-.116,1.329,1.329,0,0,0-.577-2.527,1.306,1.306,0,0,0-.574.131m234.8-3.679a1.332,1.332,0,1,0,1.221-.793,1.331,1.331,0,0,0-1.221.793m-238.778-5.685a1.323,1.323,0,0,0,.655,2.545,1.542,1.542,0,0,0,.309-.072,1.328,1.328,0,0,0-.481-2.566,1.3,1.3,0,0,0-.484.093m242.483-3.689a1.321,1.321,0,0,0,.807,1.692,1.247,1.247,0,0,0,.615.062,1.329,1.329,0,0,0,.268-2.569,1.3,1.3,0,0,0-.44-.077,1.324,1.324,0,0,0-1.25.892m-245.7-5.962a1.309,1.309,0,0,0-.878,1.643l-.011,0a1.345,1.345,0,0,0,1.456.933.6.6,0,0,0,.2-.047,1.324,1.324,0,0,0,.9-1.646l0-.011a1.344,1.344,0,0,0-1.273-.933,1.3,1.3,0,0,0-.391.06m248.652-3.676a1.327,1.327,0,0,0,.941,1.621,1.275,1.275,0,0,0,.52.033,1.321,1.321,0,0,0,1.1-.984l0,.01a1.321,1.321,0,0,0-.943-1.621,1.286,1.286,0,0,0-.348-.047,1.308,1.308,0,0,0-1.273.989M169.283,143a1.328,1.328,0,0,0,.448,2.617c.042-.007.072-.021.111-.026a1.325,1.325,0,1,0-.559-2.591m253.27-3.635a1.322,1.322,0,0,0,1.066,1.543,1.459,1.459,0,0,0,.422,0,1.329,1.329,0,0,0,.054-2.622,1.291,1.291,0,0,0-.237-.021,1.319,1.319,0,0,0-1.3,1.1m-254.951-6.4a1.309,1.309,0,1,0,.195-.015,1.324,1.324,0,0,0-.195.015m256.34-3.57a1.314,1.314,0,0,0,1.185,1.445,1.029,1.029,0,0,0,.309,0,1.329,1.329,0,0,0-.041-2.64,1.26,1.26,0,0,0-.136-.007,1.334,1.334,0,0,0-1.317,1.2M166.7,122.82a1.342,1.342,0,0,0-1.25,1.407l.011,0a1.328,1.328,0,0,0,1.4,1.252l.111-.016a1.328,1.328,0,0,0-.2-2.643l-.072,0m257.834-3.486a1.333,1.333,0,0,0,1.308,1.357,1.2,1.2,0,0,0,.2-.018,1.323,1.323,0,0,0-.154-2.635h-.024a1.326,1.326,0,0,0-1.332,1.3m-259.292-5.385a1.334,1.334,0,0,0,1.308,1.355,1.816,1.816,0,0,0,.2-.016,1.324,1.324,0,0,0-.154-2.636h-.028a1.331,1.331,0,0,0-1.329,1.3m259.481-5.693a1.347,1.347,0,0,0-.381,1.013,1.32,1.32,0,0,0,1.406,1.239.36.36,0,0,0,.1,0,1.326,1.326,0,0,0,.767-2.249Z" transform="translate(-165.246 -108.255)" fill="none"/></clipPath><linearGradient id="x" x1="-0.941" y1="3.856" x2="-0.935" y2="3.856" xlink:href="#b"/><clipPath id="y"><path d="M295.654,257.3a1.081,1.081,0,0,0,1.056,1.1,1.042,1.042,0,0,0,.175-.013,1.071,1.071,0,0,0,.928-1.033,1.089,1.089,0,0,0-1.046-1.113l-.02,0a1.094,1.094,0,0,0-1.093,1.059m11.189-1.167a1.08,1.08,0,0,0,.11,2.158l0-.008a.3.3,0,0,0,.093,0,1.079,1.079,0,0,0-.15-2.148c-.016,0-.034,0-.051,0m-21.315.458a1.079,1.079,0,0,0,.964,1.187.892.892,0,0,0,.247,0,1.081,1.081,0,0,0-.036-2.146c-.034,0-.067,0-.1,0a1.077,1.077,0,0,0-1.074.968m31.365-1.293a1.076,1.076,0,1,0,.25,2.138l.021,0a1.077,1.077,0,0,0-.144-2.144,1.108,1.108,0,0,0-.128.008m-41.425-.134a1.066,1.066,0,0,0,.879,1.239.848.848,0,0,0,.32.007,1.075,1.075,0,0,0,.038-2.126,1.042,1.042,0,0,0-.188-.018,1.067,1.067,0,0,0-1.049.9m51.389-1.411a1.077,1.077,0,0,0,.351,2.123l.06-.007a1.078,1.078,0,0,0-.2-2.136,1.131,1.131,0,0,0-.208.02M265.525,253a1.07,1.07,0,0,0,.785,1.3,1.181,1.181,0,0,0,.405.028,1.081,1.081,0,0,0,.113-2.118,1.127,1.127,0,0,0-.263-.033,1.079,1.079,0,0,0-1.04.819m71.157-1.5a1.082,1.082,0,0,0,.433,2.115c.039,0,.078-.021.129-.028a1.081,1.081,0,0,0,.768-1.321,1.1,1.1,0,0,0-1.056-.8,1.139,1.139,0,0,0-.275.034m-80.912-1.376a1.071,1.071,0,0,0,.69,1.358,1.154,1.154,0,0,0,.479.046,1.072,1.072,0,0,0,.878-.736,1.076,1.076,0,1,0-2.046-.668m90.558-1.577a1.077,1.077,0,0,0,.5,2.084,1.875,1.875,0,0,0,.2-.046,1.079,1.079,0,0,0-.348-2.1,1.07,1.07,0,0,0-.353.06M246.25,246.531a1.088,1.088,0,0,0,.593,1.414,1.122,1.122,0,0,0,.546.07,1.083,1.083,0,0,0,.856-.664,1.07,1.07,0,0,0-.593-1.4,1.058,1.058,0,0,0-.4-.08,1.079,1.079,0,0,0-1,.662m109.477-1.643a1.081,1.081,0,0,0,.57,2.064.856.856,0,0,0,.278-.08,1.079,1.079,0,0,0-.848-1.984m-118.71-2.617a1.084,1.084,0,0,0,.487,1.45,1.033,1.033,0,0,0,.621.1,1.078,1.078,0,0,0,.342-2.035,1.116,1.116,0,0,0-.479-.108,1.083,1.083,0,0,0-.971.593m127.814-1.695a1.08,1.08,0,0,0,.646,2.025,1.015,1.015,0,0,0,.355-.121l0,.008a1.093,1.093,0,0,0,.458-1.463,1.079,1.079,0,0,0-1.46-.449m-136.72-3.207a1.08,1.08,0,1,0,1.482-.386,1.062,1.062,0,0,0-.543-.149,1.1,1.1,0,0,0-.94.534M373.6,235.613a1.081,1.081,0,0,0-.355,1.479,1.092,1.092,0,0,0,1.066.5,1.134,1.134,0,0,0,.425-.15,1.081,1.081,0,0,0,.34-1.489,1.052,1.052,0,0,0-.9-.508,1.086,1.086,0,0,0-.572.165M219.59,231.831a1.091,1.091,0,0,0,.278,1.505l0-.01a1.06,1.06,0,0,0,.757.186,1.105,1.105,0,0,0,.742-.453,1.079,1.079,0,0,0-.276-1.5l0-.008a1.077,1.077,0,0,0-1.5.276m162.385-1.811a1.074,1.074,0,0,0-.237,1.505,1.062,1.062,0,0,0,1.017.438,1.074,1.074,0,0,0,.727-1.7,1.066,1.066,0,0,0-.873-.449,1.1,1.1,0,0,0-.634.2M211.483,225.7a1.082,1.082,0,0,0,.177,1.522,1.048,1.048,0,0,0,.814.227,1.112,1.112,0,0,0,.7-.392,1.083,1.083,0,0,0-1.688-1.357m178.454-1.862a1.086,1.086,0,0,0-.132,1.523,1.065,1.065,0,0,0,.968.373,1.081,1.081,0,0,0,.544-.239,1.057,1.057,0,0,0,.132-1.512,1.072,1.072,0,0,0-.829-.394,1.061,1.061,0,0,0-.683.248m-186.091-4.83a1.071,1.071,0,0,0,.054,1.517v.01a1.084,1.084,0,0,0,1.473-1.59,1.065,1.065,0,0,0-.727-.284,1.089,1.089,0,0,0-.8.348M397.431,217.1a1.077,1.077,0,1,0,1.528.028,1.1,1.1,0,0,0-.785-.33,1.057,1.057,0,0,0-.744.3M196.7,211.784a1.077,1.077,0,1,0,.742-.3,1.082,1.082,0,0,0-.742.3m207.717-1.952a1.081,1.081,0,0,0,.085,1.522,1.082,1.082,0,0,0,1.522-.083,1.078,1.078,0,0,0-1.607-1.438m-214.313-5.781a1.085,1.085,0,0,0-.163,1.517,1.07,1.07,0,0,0,.981.392,1.1,1.1,0,0,0,.534-.227,1.076,1.076,0,0,0,.163-1.517,1.1,1.1,0,0,0-.843-.4,1.077,1.077,0,0,0-.672.237m220.773-1.97a1.071,1.071,0,0,0,1,1.728,1.1,1.1,0,0,0,.708-.405,1.079,1.079,0,0,0-1.7-1.322m-226.8-6.2a1.072,1.072,0,1,0,.615-.194,1.071,1.071,0,0,0-.615.194M416.755,193.9a1.078,1.078,0,0,0,.307,1.491,1.046,1.046,0,0,0,.742.167,1.068,1.068,0,0,0,.445-1.955,1.039,1.039,0,0,0-.6-.185,1.077,1.077,0,0,0-.9.482m-238.09-6.6a1.085,1.085,0,0,0-.386,1.473l0,.011a1.092,1.092,0,0,0,1.08.512,1.046,1.046,0,0,0,.4-.139,1.07,1.07,0,0,0,.376-1.473,1.084,1.084,0,0,0-1.474-.384m243.374-2a1.08,1.08,0,0,0,.405,1.468,1.063,1.063,0,0,0,1.468-.405,1.077,1.077,0,0,0-1.873-1.062M173.881,178.35a1.074,1.074,0,0,0,.628,2.025,1.339,1.339,0,0,0,.337-.1,1.077,1.077,0,1,0-.964-1.927m252.806-2,0-.01a1.086,1.086,0,0,0,.516,1.443,1.135,1.135,0,0,0,.61.093,1.077,1.077,0,1,0-1.125-1.527m-256.925-7.3a1.08,1.08,0,0,0,.819,2,1.08,1.08,0,1,0-.819-2m260.923-1.971a1.064,1.064,0,0,0,.611,1.389,1.078,1.078,0,0,0,.535.062,1.061,1.061,0,0,0,.855-.675,1.074,1.074,0,0,0-.615-1.4,1.033,1.033,0,0,0-.379-.072,1.084,1.084,0,0,0-1.007.693m-264.35-7.592a1.075,1.075,0,0,0,.482,2.087.963.963,0,0,0,.19-.036,1.079,1.079,0,1,0-.672-2.051M434,157.55a1.07,1.07,0,0,0,.709,1.347,1.046,1.046,0,0,0,.468.038A1.079,1.079,0,1,0,434,157.55M163.6,149.7a1.093,1.093,0,0,0-.788,1.312,1.081,1.081,0,0,0,1.19.806l.123-.018a1.082,1.082,0,0,0-.525-2.1m273.013-1.9a1.078,1.078,0,0,0,.8,1.291,1.177,1.177,0,0,0,.384.02,1.081,1.081,0,0,0,.1-2.123,1.063,1.063,0,0,0-1.288.812m-275.04-8.048a1.082,1.082,0,0,0-.881,1.244,1.1,1.1,0,0,0,1.213.886l.041-.007a1.077,1.077,0,0,0-.185-2.138,1.231,1.231,0,0,0-.188.015M438.5,137.9a1.083,1.083,0,0,0,.9,1.236,1.019,1.019,0,0,0,.307,0,1.078,1.078,0,0,0,.02-2.133,1.05,1.05,0,0,0-.173-.015,1.065,1.065,0,0,0-1.054.914M160.27,129.676a1.078,1.078,0,1,0,.211,2.146l.039-.007a1.077,1.077,0,0,0-.141-2.144c-.036,0-.074,0-.11,0m279.4-1.795a1.084,1.084,0,0,0,.992,1.162.824.824,0,0,0,.235-.011,1.059,1.059,0,0,0,.919-.969l0-.01a1.059,1.059,0,0,0-.981-1.154c-.033,0-.065,0-.1,0a1.076,1.076,0,0,0-1.067.986m-279.992-8.35a1.077,1.077,0,0,0-1.043,1.111,1.064,1.064,0,0,0,1.1,1.044.512.512,0,0,0,.123-.008,1.08,1.08,0,0,0-.144-2.148h-.036m280.43-1.718a1.09,1.09,0,0,0,1.076,1.089c.052-.008.1,0,.154-.01a1.078,1.078,0,0,0-.139-2.146h-.02a1.076,1.076,0,0,0-1.071,1.067m-281.417-7.406a1.073,1.073,0,0,0,1.026,1.116,1.269,1.269,0,0,0,.2,0,1.08,1.08,0,0,0-.1-2.149l-.041,0a1.091,1.091,0,0,0-1.084,1.04M440,108.255a1.1,1.1,0,0,0,.972.49l.072-.01a1.082,1.082,0,0,0,.76-.481Z" transform="translate(-158.635 -108.255)" fill="none"/></clipPath><linearGradient id="z" x1="-0.831" y1="3.581" x2="-0.826" y2="3.581" xlink:href="#b"/><clipPath id="aa"><path d="M299.15,265.579a.836.836,0,0,0,.806.858c.041,0,.093,0,.134-.007a.844.844,0,0,0,.714-.8.822.822,0,0,0-.806-.847l-.038,0a.813.813,0,0,0-.811.8m10.946-.835a.826.826,0,1,0,.06,1.651l.08-.01a.825.825,0,0,0-.106-1.641H310.1m-21.073.137a.832.832,0,0,0,.754.905l-.01,0a.676.676,0,0,0,.193,0,.828.828,0,0,0-.028-1.644c-.025,0-.051,0-.077,0a.841.841,0,0,0-.832.745m31.128-.848a.826.826,0,0,0-.729.914.818.818,0,0,0,.9.729l.029,0a.825.825,0,0,0,.713-.9.836.836,0,0,0-.82-.745.623.623,0,0,0-.095.007m-41.18-.518a.825.825,0,0,0,.686.946.747.747,0,0,0,.248.007.83.83,0,0,0,.021-1.639.741.741,0,0,0-.134-.011.833.833,0,0,0-.822.7m51.188-.86a.832.832,0,0,0,.253,1.644l.021,0a.833.833,0,0,0-.146-1.652.859.859,0,0,0-.129.01m-61.136-1.193a.823.823,0,0,0,.619.987.746.746,0,0,0,.3.021.823.823,0,0,0,.686-.629.832.832,0,0,0-.61-1,.841.841,0,0,0-.19-.021.83.83,0,0,0-.807.641m71.013-.824a.817.817,0,0,0-.606.989.832.832,0,0,0,.922.637c.02,0,.049-.018.078-.023a.826.826,0,0,0-.193-1.628.867.867,0,0,0-.2.025m-80.8-1.9a.814.814,0,0,0,.9,1.061.8.8,0,0,0,.672-.575.815.815,0,0,0-.541-1.028.884.884,0,0,0-.25-.038.8.8,0,0,0-.778.58m90.524-.78a.829.829,0,0,0,.364,1.61c.051-.008.09-.021.129-.028a.838.838,0,0,0,.549-1.043.83.83,0,0,0-.788-.579.871.871,0,0,0-.255.039m-100.116-2.587a.834.834,0,0,0,.476,1.069l.01,0a.785.785,0,0,0,.407.047.826.826,0,0,0,.185-1.59.818.818,0,0,0-.3-.057.84.84,0,0,0-.776.533m109.652-.74a.827.827,0,0,0,.4,1.592,1.218,1.218,0,0,0,.191-.046.819.819,0,0,0,.471-1.074.828.828,0,0,0-.773-.526.791.791,0,0,0-.291.054m-118.983-3.259a.828.828,0,0,0,.409,1.1.852.852,0,0,0,.453.074.865.865,0,0,0,.646-.481.829.829,0,0,0-1.507-.691m128.268-.695h-.011a.825.825,0,0,0,.471,1.563.687.687,0,0,0,.239-.062.841.841,0,0,0,.4-1.1.829.829,0,0,0-.752-.472.794.794,0,0,0-.342.077m-137.31-3.921a.828.828,0,1,0,1.118-.327.807.807,0,0,0-.4-.1.828.828,0,0,0-.722.43m146.3-.655a.828.828,0,0,0,.51,1.548,1.011,1.011,0,0,0,.286-.09.831.831,0,0,0-.8-1.458m-155.014-4.55a.826.826,0,0,0,.247,1.141l0,.01a.911.911,0,0,0,.562.121.835.835,0,0,0,.587-.381.823.823,0,0,0-.258-1.138.811.811,0,0,0-.445-.132.824.824,0,0,0-.695.379m163.672-.6a.828.828,0,0,0-.257,1.147.844.844,0,0,0,.814.373.856.856,0,0,0,.332-.127.827.827,0,0,0-.448-1.523.808.808,0,0,0-.441.131M214.2,235.783a.837.837,0,0,0,.178,1.161.868.868,0,0,0,.61.154.832.832,0,0,0,.373-1.492.818.818,0,0,0-.485-.16.851.851,0,0,0-.675.338m180.319-.569a.832.832,0,0,0,.6,1.492.929.929,0,0,0,.381-.154.839.839,0,0,0,.172-1.167.821.821,0,0,0-.664-.332.835.835,0,0,0-.494.16m-188.254-5.742a.827.827,0,0,0,.74,1.352.867.867,0,0,0,.528-.288.826.826,0,0,0-.108-1.16.809.809,0,0,0-.531-.2.818.818,0,0,0-.629.3m196.151-.526a.825.825,0,0,0-.1,1.167.836.836,0,0,0,.749.279.9.9,0,0,0,.418-.181.839.839,0,0,0,.1-1.177.829.829,0,0,0-.629-.284.817.817,0,0,0-.536.2m-203.663-6.3a.827.827,0,0,0,.026,1.17.815.815,0,0,0,.678.217.825.825,0,0,0-.108-1.643.821.821,0,0,0-.6.255m211.12-.489a.83.83,0,0,0-.016,1.165.851.851,0,0,0,.714.242.765.765,0,0,0,.451-.226.825.825,0,0,0-.567-1.422.833.833,0,0,0-.582.24m-218.161-6.819a.833.833,0,0,0-.047,1.17.8.8,0,0,0,.717.261.861.861,0,0,0,.445-.2.827.827,0,0,0,.057-1.172.818.818,0,0,0-.611-.27.842.842,0,0,0-.561.214m225.16-.458a.826.826,0,0,0,.722,1.373.84.84,0,0,0,.51-.265.827.827,0,0,0-.067-1.165.809.809,0,0,0-.554-.217.817.817,0,0,0-.611.275m-231.684-7.293a.815.815,0,0,0-.131,1.162.826.826,0,1,0,.641-1.348.786.786,0,0,0-.51.186m238.178-.431a.834.834,0,0,0,.139,1.165.806.806,0,0,0,.621.172.832.832,0,0,0,.405-1.476.837.837,0,0,0-1.165.139m-244.176-7.749a.827.827,0,0,0-.214,1.151.828.828,0,1,0,.678-1.3.815.815,0,0,0-.464.145m250.154-.379a.823.823,0,1,0,1.143-.217.822.822,0,0,0-.467-.145.809.809,0,0,0-.675.363m-255.595-8.177a.828.828,0,0,0,.539,1.533.948.948,0,0,0,.314-.1.832.832,0,0,0-.853-1.428m261.011-.345a.827.827,0,0,0,.288,1.134.84.84,0,0,0,.541.11.831.831,0,0,0,.3-1.535.824.824,0,0,0-1.133.291M168.9,181.96a.833.833,0,1,0,1.121.361.834.834,0,0,0-.745-.448.859.859,0,0,0-.376.087m270.7-.307a.838.838,0,0,0,.368,1.111.8.8,0,0,0,.484.078.813.813,0,0,0,.629-.446.829.829,0,0,0-1.481-.744m-274.94-8.908a.829.829,0,0,0-.428,1.089.816.816,0,0,0,.871.5.771.771,0,0,0,.208-.059.83.83,0,0,0-.651-1.528m279.19-.252a.828.828,0,0,0,.435,1.084.873.873,0,0,0,.43.054.813.813,0,0,0,.654-.5.826.826,0,0,0-.76-1.149.822.822,0,0,0-.758.512m-282.8-9.223a.817.817,0,0,0-.507,1.046l0,.011a.812.812,0,0,0,.888.538.776.776,0,0,0,.16-.033.833.833,0,0,0,.515-1.059l-.01,0a.818.818,0,0,0-1.048-.505m286.414-.208a.832.832,0,0,0,.513,1.051.808.808,0,0,0,.376.031.824.824,0,1,0-.889-1.082m-289.385-9.5a.826.826,0,0,0-.584,1.015.842.842,0,0,0,.917.606.354.354,0,0,0,.1-.023.828.828,0,0,0-.212-1.628.853.853,0,0,0-.221.029m292.373-.157a.81.81,0,0,0,.58,1.012.715.715,0,0,0,.324.029.832.832,0,0,0-.116-1.654.813.813,0,0,0-.788.613m-294.689-9.712a.82.82,0,0,0-.649.974.832.832,0,0,0,.925.655.119.119,0,0,0,.059-.016.826.826,0,0,0,.639-.974.811.811,0,0,0-.8-.655.9.9,0,0,0-.173.016m297-.119a.831.831,0,0,0,.657.971.772.772,0,0,0,.268.007.824.824,0,0,0,.057-1.626.871.871,0,0,0-.172-.016.825.825,0,0,0-.811.665M154.1,133.687a.826.826,0,0,0,.224,1.636.825.825,0,0,0-.109-1.644.921.921,0,0,0-.114.008m300.325-.069a.836.836,0,0,0,.716.933.867.867,0,0,0,.216,0,.832.832,0,0,0,0-1.648.869.869,0,0,0-.113-.008.836.836,0,0,0-.821.721M153.1,123.586a.828.828,0,1,0,.123,1.651l.051-.007a.833.833,0,0,0,.714-.879.823.823,0,0,0-.827-.767c-.02,0-.039,0-.06,0m302.31-.008a.815.815,0,0,0,.768.873,1.118,1.118,0,0,0,.165,0,.845.845,0,0,0,.719-.768l-.011,0a.827.827,0,0,0-.768-.884c-.02,0-.038,0-.056,0a.817.817,0,0,0-.817.78m-303.456-9.3a.826.826,0,0,0,.822.824c.041-.007.082-.011.113-.015a.825.825,0,0,0-.113-1.643.82.82,0,0,0-.822.834m303.759-.785a.826.826,0,0,0,.822.825c.042,0,.072-.01.113-.016a.833.833,0,0,0,.723-.819.842.842,0,0,0-.834-.822.822.822,0,0,0-.824.832" transform="translate(-151.955 -112.663)" fill="none"/></clipPath><linearGradient id="ab" x1="-0.74" y1="3.431" x2="-0.735" y2="3.431" xlink:href="#b"/><clipPath id="ac"><path d="M310.585,278.984a.576.576,0,1,0,.013,1.152.152.152,0,0,0,.072,0,.579.579,0,0,0-.083-1.152h0m-10.807.353a.58.58,0,0,0,.546.6c.041,0,.072,0,.113,0a.581.581,0,0,0-.054-1.156h-.016a.586.586,0,0,0-.588.556m20.993-.8a.585.585,0,0,0-.534.619.578.578,0,0,0,.618.533l.043,0a.577.577,0,0,0-.085-1.147h-.041m-31.184-.09a.576.576,0,0,0,.5.642.623.623,0,0,0,.642-.51.576.576,0,0,0-.512-.641.527.527,0,0,0-.072,0,.56.56,0,0,0-.557.513m41.325-.973a.578.578,0,0,0-.5.644.581.581,0,0,0,1.152-.157.574.574,0,0,0-.562-.5.443.443,0,0,0-.091.008m-51.451-.549a.579.579,0,0,0,.647.673.58.58,0,0,0,.02-1.146.6.6,0,0,0-.093-.008.589.589,0,0,0-.574.481m61.506-1.154a.578.578,0,0,0,.2,1.138l.029,0a.578.578,0,0,0-.113-1.144.683.683,0,0,0-.114.011m-71.523-1.021a.574.574,0,0,0,.425.7.444.444,0,0,0,.208.013.587.587,0,0,0,.487-.436.579.579,0,0,0-.425-.695.569.569,0,0,0-.695.415m81.454-1.29a.573.573,0,0,0,.226,1.121c.031,0,.049-.007.07-.01a.576.576,0,0,0-.145-1.133.537.537,0,0,0-.15.021m-91.32-1.5a.578.578,0,0,0,.376.721.555.555,0,0,0,.721-.378.561.561,0,0,0-.376-.721.6.6,0,0,0-.168-.025.578.578,0,0,0-.552.4m101.082-1.437a.578.578,0,0,0-.355.729.566.566,0,0,0,.619.387.365.365,0,0,0,.111-.024.577.577,0,0,0-.376-1.092m-110.742-1.973a.586.586,0,0,0,.327.75.57.57,0,0,0,.283.031.593.593,0,0,0,.466-.361.579.579,0,0,0-.329-.747.6.6,0,0,0-.217-.041.556.556,0,0,0-.53.368m120.31-1.567a.573.573,0,0,0-.32.744.582.582,0,0,0,.615.36.608.608,0,0,0,.139-.039.574.574,0,1,0-.433-1.064m-129.736-2.448a.576.576,0,0,0,.278.765.619.619,0,0,0,.327.047.552.552,0,0,0,.438-.327.575.575,0,0,0-.523-.819.563.563,0,0,0-.52.333m139.055-1.7a.575.575,0,0,0,.324,1.09.664.664,0,0,0,.178-.056.561.561,0,0,0,.265-.767.577.577,0,0,0-.518-.327.565.565,0,0,0-.248.059m-148.208-2.895a.57.57,0,0,0,.23.781.593.593,0,0,0,.348.067.555.555,0,0,0,.432-.306.568.568,0,0,0-.5-.848.586.586,0,0,0-.515.306m157.243-1.829a.578.578,0,0,0-.222.783.587.587,0,0,0,.585.291.507.507,0,0,0,.206-.07.586.586,0,0,0,.222-.791.576.576,0,0,0-.791-.212m-166.092-3.328a.582.582,0,0,0,.191.8.588.588,0,0,0,.379.072.575.575,0,0,0-.072-1.146.588.588,0,0,0-.5.276M397.3,252.84a.572.572,0,0,0-.17.8.566.566,0,0,0,.561.262.543.543,0,0,0,.235-.093.581.581,0,0,0,.17-.8.567.567,0,0,0-.479-.268.555.555,0,0,0-.317.1M213.991,249.09a.57.57,0,0,0,.129.806.588.588,0,0,0,.415.1.557.557,0,0,0,.391-.239.581.581,0,0,0-.131-.807.592.592,0,0,0-.332-.1.569.569,0,0,0-.472.245m191.667-2.068,0-.01a.58.58,0,0,0-.116.809.567.567,0,0,0,.538.235.547.547,0,0,0,.273-.109.586.586,0,0,0,.116-.809.56.56,0,0,0-.458-.232.6.6,0,0,0-.351.116m-199.8-4.155a.577.577,0,0,0,.892.732.582.582,0,0,0-.453-.941.557.557,0,0,0-.44.209m207.777-2.187a.585.585,0,0,0,.459,1.02.6.6,0,0,0,.291-.132.581.581,0,0,0-.75-.888m-215.51-4.522a.581.581,0,0,0,.039.819.57.57,0,0,0,.461.141.541.541,0,0,0,.348-.18.569.569,0,0,0-.029-.809v-.011a.582.582,0,0,0-.819.041m223.085-2.3a.574.574,0,0,0,.476.987.527.527,0,0,0,.317-.159h.01a.569.569,0,0,0,.013-.806.588.588,0,0,0-.425-.185.552.552,0,0,0-.391.162m-230.378-4.884a.583.583,0,0,0-.013.814.576.576,0,0,0,.5.17.6.6,0,0,0,.322-.145.579.579,0,0,0-.4-1,.6.6,0,0,0-.405.16m237.508-2.4a.569.569,0,0,0,.039.807.556.556,0,0,0,.464.154.547.547,0,0,0,.347-.181.58.58,0,0,0-.029-.809.569.569,0,0,0-.394-.159.578.578,0,0,0-.427.188M184.02,221.36a.57.57,0,0,0-.075.812.576.576,0,0,0,.52.2.564.564,0,0,0,.293-.134.571.571,0,0,0-.368-1.013.558.558,0,0,0-.369.137M435,218.861a.59.59,0,0,0,.09.809.605.605,0,0,0,.44.118.591.591,0,0,0,.373-.206.581.581,0,0,0-.078-.814.583.583,0,0,0-.824.093m-257.322-5.534a.585.585,0,0,0-.118.809.575.575,0,0,0,.546.226.569.569,0,0,0,.263-.109.576.576,0,0,0-.348-1.038.568.568,0,0,0-.343.113m263.505-2.591a.569.569,0,0,0,.131.806.6.6,0,0,0,.806-.131l0-.01a.582.582,0,0,0-.479-.907.55.55,0,0,0-.456.242M171.87,204.915a.6.6,0,0,0-.17.806.586.586,0,0,0,.561.253.682.682,0,0,0,.235-.085.564.564,0,0,0,.168-.8v-.01a.578.578,0,0,0-.794-.168m274.964-2.672a.575.575,0,0,0,.191.8.542.542,0,0,0,.373.082.577.577,0,0,0-.072-1.149.579.579,0,0,0-.492.27M166.6,196.16a.574.574,0,0,0,.361,1.072.546.546,0,0,0,.208-.069.575.575,0,0,0,.222-.781.588.588,0,0,0-.512-.294.574.574,0,0,0-.279.072m285.355-2.752-.01,0a.6.6,0,0,0,.243.791.589.589,0,0,0,.347.056.564.564,0,0,0,.432-.3.579.579,0,0,0-.229-.781.61.61,0,0,0-.278-.067.565.565,0,0,0-.505.3m-290.065-6.327a.575.575,0,0,0-.275.77.585.585,0,0,0,.6.319.576.576,0,0,0,.178-.054.577.577,0,0,0-.247-1.1.577.577,0,0,0-.255.06m294.619-2.8a.566.566,0,0,0,.279.765.576.576,0,0,0,.316.051.59.59,0,0,0,.448-.34.576.576,0,0,0-.279-.765.589.589,0,0,0-.243-.052.56.56,0,0,0-.52.342m-298.749-6.574a.589.589,0,0,0-.319.753.582.582,0,0,0,.615.36.659.659,0,0,0,.137-.039.579.579,0,0,0-.433-1.074m302.716-2.834a.578.578,0,0,0,.613.783.605.605,0,0,0,.464-.363.58.58,0,0,0-.328-.749A.587.587,0,0,0,461,174.5a.562.562,0,0,0-.528.371m-306.24-6.765a.567.567,0,0,0-.365.727.578.578,0,0,0,.619.391.446.446,0,0,0,.11-.026.572.572,0,0,0,.364-.729.579.579,0,0,0-.546-.394.552.552,0,0,0-.183.031m309.611-2.87a.57.57,0,0,0,.376.721.527.527,0,0,0,.25.018.573.573,0,0,0,.095-1.115.543.543,0,0,0-.181-.031.564.564,0,0,0-.539.407M151.307,158.3a.571.571,0,0,0-.407.706.579.579,0,0,0,.634.417c.029,0,.051,0,.082-.01a.581.581,0,0,0,.4-.714.555.555,0,0,0-.549-.418.643.643,0,0,0-.155.02m315.283-2.9a.589.589,0,0,0,.425.7.9.9,0,0,0,.219.01.582.582,0,0,0,.485-.436.582.582,0,0,0-1.129-.278m-317.57-7.074a.576.576,0,0,0,.186,1.136.064.064,0,0,0,.039-.015.565.565,0,0,0,.454-.668l0-.011a.569.569,0,0,0-.678-.441m319.709-2.909,0-.01a.577.577,0,0,0,.463.678,1.019,1.019,0,0,0,.175,0,.577.577,0,0,0,.492-.469.566.566,0,0,0-.461-.668.6.6,0,0,0-.106-.01.567.567,0,0,0-.561.482m-321.386-7.192a.564.564,0,0,0-.489.642l-.01,0a.58.58,0,0,0,.654.5.576.576,0,0,0-.077-1.147.632.632,0,0,0-.078,0m322.87-2.908a.579.579,0,0,0,.508.642.541.541,0,0,0,.145,0,.586.586,0,0,0,.5-.51.576.576,0,0,0-.508-.631.527.527,0,0,0-.072,0,.571.571,0,0,0-.57.5m-323.921-7.277a.577.577,0,0,0,.1,1.149l.031,0a.577.577,0,0,0-.08-1.147l-.047,0m324.769-2.88a.576.576,0,0,0,.546.606.329.329,0,0,1,.056,0,.344.344,0,0,0,.057,0,.583.583,0,0,0-.056-1.157h-.013a.587.587,0,0,0-.59.556m-325.175-7.344a.576.576,0,0,0,.013,1.152.338.338,0,0,1,.041,0,.1.1,0,0,0,.031,0,.579.579,0,0,0-.08-1.152h0m325.949-3.439a.575.575,0,1,0,.013,1.151.216.216,0,0,0,.072,0,.579.579,0,0,0-.08-1.152h0m-326.319-6.124a.576.576,0,0,0,.541.487h.054a.375.375,0,0,0,.059,0,.581.581,0,0,0,.489-.484Z" transform="translate(-145.318 -108.255)" fill="none"/></clipPath><linearGradient id="ad" x1="-0.655" y1="3.137" x2="-0.65" y2="3.137" xlink:href="#b"/><clipPath id="ae"><path d="M313.47,288.8a.331.331,0,0,0,.332.325l.041,0a.329.329,0,0,0,.284-.327.321.321,0,0,0-.33-.315h-.013a.315.315,0,0,0-.314.322m-10.212-.265a.324.324,0,0,0,.3.34.115.115,0,0,0,.062,0,.339.339,0,0,0,.289-.306.321.321,0,0,0-.306-.34l-.028,0a.323.323,0,0,0-.322.306m20.736-.418a.337.337,0,0,0-.314.351.329.329,0,0,0,.35.3l.021,0a.328.328,0,0,0-.036-.652l-.021,0m-30.914-.448a.337.337,0,0,0,.288.364.263.263,0,0,0,.08,0,.34.34,0,0,0,.281-.286.324.324,0,0,0-.288-.361.216.216,0,0,0-.046,0,.323.323,0,0,0-.315.289m41.062-.5a.32.32,0,0,0-.281.36.328.328,0,0,0,.358.289.338.338,0,0,0,.291-.369.324.324,0,0,0-.322-.283l-.046,0m-51.178-.966a.329.329,0,0,0,.266.376.309.309,0,0,0,.1,0,.324.324,0,0,0,.016-.639.307.307,0,0,0-.065-.007.333.333,0,0,0-.32.275m61.266-.564a.327.327,0,0,0-.268.376.333.333,0,0,0,.366.268h.01a.328.328,0,0,0-.049-.651.24.24,0,0,0-.059.007m-71.291-1.509a.328.328,0,0,0,.239.391.26.26,0,0,0,.126.013.327.327,0,0,0,.275-.253.32.32,0,0,0-.248-.387l.01,0a.323.323,0,0,0-.4.239m81.26-.6a.327.327,0,0,0,.129.641l.029,0a.322.322,0,0,0,.235-.392.317.317,0,0,0-.314-.255.279.279,0,0,0-.08.011m-91.137-2.055a.324.324,0,0,0,.221.414.291.291,0,0,0,.136,0,.32.32,0,0,0,.266-.222.327.327,0,0,0-.311-.425.324.324,0,0,0-.312.232m100.974-.637a.326.326,0,0,0-.211.41.316.316,0,0,0,.35.229c.021,0,.039-.015.06-.018a.316.316,0,0,0,.211-.4.327.327,0,0,0-.311-.237.31.31,0,0,0-.1.016m-110.683-2.591a.332.332,0,0,0,.191.418.3.3,0,0,0,.157.021.334.334,0,0,0,.067-.639.327.327,0,0,0-.415.2m120.349-.677a.332.332,0,0,0-.2.42.337.337,0,0,0,.358.208l.07-.008a.334.334,0,0,0,.19-.428.33.33,0,0,0-.307-.211.34.34,0,0,0-.111.02m-129.849-3.122a.323.323,0,0,0,.173.428.368.368,0,0,0,.168.029.343.343,0,0,0,.262-.2.33.33,0,0,0-.173-.43.338.338,0,0,0-.126-.025.331.331,0,0,0-.3.2m139.294-.709a.331.331,0,0,0-.167.435.327.327,0,0,0,.345.19.243.243,0,0,0,.09-.023.325.325,0,0,0-.139-.624.359.359,0,0,0-.129.023M234.6,270.1a.329.329,0,0,0,.144.445.385.385,0,0,0,.188.026.352.352,0,0,0,.253-.18.329.329,0,0,0-.152-.433.319.319,0,0,0-.433.142m157.753-.736a.327.327,0,0,0,.2.613.217.217,0,0,0,.106-.036.318.318,0,0,0,.137-.43.325.325,0,0,0-.441-.147m-166.741-4.145a.329.329,0,0,0,.123.446.341.341,0,0,0,.448-.123.327.327,0,0,0-.123-.446.32.32,0,0,0-.16-.044.336.336,0,0,0-.288.167m175.659-.758a.324.324,0,0,0,.216.6.625.625,0,0,0,.119-.036.333.333,0,0,0,.114-.449.314.314,0,0,0-.275-.162.348.348,0,0,0-.175.047m-184.334-4.639a.32.32,0,0,0,.093.453.334.334,0,0,0,.224.051.322.322,0,0,0,.227-.144.328.328,0,0,0-.276-.508.312.312,0,0,0-.268.149m192.955-.791a.319.319,0,0,0-.095.446.337.337,0,0,0,.322.152.217.217,0,0,0,.134-.061.334.334,0,0,0,.093-.454.321.321,0,0,0-.266-.142.339.339,0,0,0-.188.059m-201.307-5.1a.332.332,0,0,0,.064.454.353.353,0,0,0,.243.059.32.32,0,0,0,.145-.585.306.306,0,0,0-.186-.064.331.331,0,0,0-.266.136m209.592-.827a.312.312,0,0,0-.062.451.326.326,0,0,0,.306.134.46.46,0,0,0,.157-.064.343.343,0,0,0,.06-.461.348.348,0,0,0-.268-.127.3.3,0,0,0-.193.067M200.6,247.554a.335.335,0,0,0,.034.469.374.374,0,0,0,.255.07.361.361,0,0,0,.212-.113.326.326,0,0,0-.041-.458.337.337,0,0,0-.219-.083.314.314,0,0,0-.242.114m225.5-.855a.332.332,0,0,0,.265.574.357.357,0,0,0,.163-.075.342.342,0,0,0,.041-.469.354.354,0,0,0-.255-.109.326.326,0,0,0-.214.08M193,240.735a.326.326,0,0,0,.011.461.322.322,0,0,0,.271.088.313.313,0,0,0,.191-.1.328.328,0,0,0-.239-.552.317.317,0,0,0-.235.1m240.639-.892a.339.339,0,0,0-.01.464.343.343,0,0,0,.281.085.32.32,0,0,0,.193-.541.331.331,0,0,0-.239-.1.313.313,0,0,0-.226.095m-247.829-6.365a.327.327,0,0,0-.018.466.307.307,0,0,0,.281.095.321.321,0,0,0,.194-.541.314.314,0,0,0-.237-.106.327.327,0,0,0-.221.087m254.959-.93a.325.325,0,0,0,.011.461.345.345,0,0,0,.27.087.341.341,0,0,0,.2-.1.346.346,0,0,0-.023-.471.331.331,0,0,0-.219-.082.321.321,0,0,0-.242.1m-261.709-6.727a.32.32,0,0,0-.039.459.316.316,0,0,0,.293.114.4.4,0,0,0,.167-.074.327.327,0,0,0,.039-.459.339.339,0,0,0-.253-.119.307.307,0,0,0-.206.078m268.392-.971a.329.329,0,0,0,.3.533.31.31,0,0,0,.209-.119.323.323,0,0,0-.042-.458.335.335,0,0,0-.467.044m-274.678-7.069a.325.325,0,0,0,.235.585.278.278,0,0,0,.145-.059.335.335,0,0,0,.07-.464.319.319,0,0,0-.258-.129.3.3,0,0,0-.193.067m280.909-1a.334.334,0,0,0,.072.454.364.364,0,0,0,.247.059.326.326,0,0,0,.217-.132.331.331,0,0,0-.072-.453.337.337,0,0,0-.464.072M166.962,209.39a.314.314,0,0,0-.095.445.322.322,0,0,0,.319.152.4.4,0,0,0,.137-.049.329.329,0,0,0-.181-.6.319.319,0,0,0-.18.056m292.468-1.035a.336.336,0,0,0,.1.449.347.347,0,0,0,.222.051.323.323,0,0,0,.229-.144.336.336,0,0,0-.095-.461.353.353,0,0,0-.178-.049.331.331,0,0,0-.281.154M161.663,200.67a.338.338,0,0,0-.126.448.35.35,0,0,0,.332.162.528.528,0,0,0,.119-.036.345.345,0,0,0,.123-.451.321.321,0,0,0-.448-.123m303.02-1.064a.329.329,0,0,0,.132.445.334.334,0,0,0,.438-.121.326.326,0,0,0-.124-.448.318.318,0,0,0-.16-.043.333.333,0,0,0-.286.167m-307.805-7.965a.325.325,0,0,0,.2.613.486.486,0,0,0,.1-.025.326.326,0,0,0,.144-.443.326.326,0,0,0-.441-.145m312.534-1.074a.329.329,0,0,0,.152.432.3.3,0,0,0,.19.026.351.351,0,0,0,.253-.18.323.323,0,0,0-.152-.43.329.329,0,0,0-.443.152m-316.769-8.225a.328.328,0,0,0,.168.628.377.377,0,0,0,.092-.023.327.327,0,0,0,.165-.435.336.336,0,0,0-.3-.2.309.309,0,0,0-.124.026m320.968-1.09a.319.319,0,0,0,.338.448.323.323,0,0,0,.09-.621.361.361,0,0,0-.129-.025.321.321,0,0,0-.3.2m-324.647-8.437a.324.324,0,0,0,.149.628c.02,0,.039,0,.07-.008a.325.325,0,0,0,.19-.418.309.309,0,0,0-.3-.222.343.343,0,0,0-.113.021m328.287-1.1a.324.324,0,0,0,.2.417.335.335,0,0,0,.147.021.343.343,0,0,0,.268-.224.326.326,0,0,0-.616-.214m-331.405-8.625a.323.323,0,0,0,.129.631.331.331,0,0,0,.049,0,.326.326,0,0,0-.083-.639.31.31,0,0,0-.095.013m334.473-1.111a.322.322,0,0,0,.23.4.279.279,0,0,0,.124.015.336.336,0,0,0,.278-.234.327.327,0,0,0-.229-.4.3.3,0,0,0-.1-.016.323.323,0,0,0-.306.237m-337.006-8.788a.327.327,0,0,0,.116.644l.021,0a.322.322,0,0,0,.244-.394l.011,0a.334.334,0,0,0-.327-.252.443.443,0,0,0-.065.007m339.5-1.12a.331.331,0,0,0,.248.389.6.6,0,0,0,.116.007.34.34,0,0,0,.283-.255.325.325,0,0,0-.258-.387.359.359,0,0,0-.072-.008.325.325,0,0,0-.317.255m-341.454-8.911a.338.338,0,0,0-.278.379l.011,0a.318.318,0,0,0,.366.266h.01a.327.327,0,0,0,.27-.366.346.346,0,0,0-.335-.279l-.044,0m343.36-1.131a.328.328,0,0,0,.268.378.546.546,0,0,0,.1,0,.33.33,0,0,0,0-.651l-.051,0a.321.321,0,0,0-.324.271m-344.741-8.989a.328.328,0,0,0-.289.36.337.337,0,0,0,.369.289.32.32,0,0,0,.279-.358.316.316,0,0,0-.315-.294l-.044,0m346.038-1.123a.334.334,0,0,0,.294.36.4.4,0,0,1,.044,0,.087.087,0,0,0,.029,0,.319.319,0,0,0,.279-.3.311.311,0,0,0-.286-.351.465.465,0,0,0-.047,0,.321.321,0,0,0-.314.291m-346.82-9.068a.328.328,0,1,0,.038.655l.02,0a.328.328,0,0,0-.049-.652h-.008m347.522-1.1a.332.332,0,0,0,.312.338l.06-.01a.325.325,0,0,0,.278-.306.316.316,0,0,0-.312-.337l-.029,0a.318.318,0,0,0-.309.315m-348.037-8.788a.316.316,0,0,0,.322.329l.02,0,.021,0a.331.331,0,0,0,.286-.327.324.324,0,0,0-.324-.329h-.01a.31.31,0,0,0-.315.322m348.464-1.742a.324.324,0,1,0,0,.647l.041-.007a.321.321,0,0,0-.039-.641h-.007" transform="translate(-138.676 -111.215)" fill="none"/></clipPath><linearGradient id="af" x1="-0.585" y1="2.996" x2="-0.581" y2="2.996" xlink:href="#b"/><clipPath id="ag"><path d="M316.921,300.626a.082.082,0,0,0,.074.083l.011,0a.067.067,0,0,0,.06-.072.074.074,0,0,0-.074-.082c-.039,0-.075.031-.072.072m10.261-.35a.069.069,0,0,0-.06.08.066.066,0,0,0,.072.074l.008,0a.07.07,0,0,0,.062-.08.067.067,0,0,0-.072-.074l-.01,0m-20.463.064a.075.075,0,0,0,.074.083l.01,0a.077.077,0,0,0,.072-.072.08.08,0,0,0-.074-.083h-.007a.081.081,0,0,0-.075.074m30.638-.9a.072.072,0,0,0-.072.082.08.08,0,0,0,.082.072.089.089,0,0,0,.072-.083.074.074,0,0,0-.07-.07h-.011m-40.8.049a.079.079,0,0,0,.074.082l.01,0a.079.079,0,0,0,.074-.062.082.082,0,0,0-.074-.083l0-.008h-.007a.081.081,0,0,0-.075.074m50.9-1.438a.079.079,0,0,0-.059.092.067.067,0,0,0,.078.06.07.07,0,0,0,.072-.08.079.079,0,0,0-.08-.072h-.011m-61,.025a.073.073,0,0,0,.06.085l.021,0a.076.076,0,0,0,.064-.062.074.074,0,0,0-.062-.083l-.02,0a.069.069,0,0,0-.064.067m71.012-1.956a.087.087,0,0,0-.059.092.074.074,0,0,0,.092.059.076.076,0,0,0-.023-.15h-.01m-81.044-.023a.064.064,0,0,0,.051.087.036.036,0,0,0,.033.007.079.079,0,0,0,.064-.061.1.1,0,0,0-.056-.095l-.008,0a.082.082,0,0,0-.083.064m90.934-2.448c-.041.016-.067.049-.051.088a.081.081,0,0,0,.092.06.088.088,0,0,0,.059-.091.083.083,0,0,0-.075-.062l-.025,0M266.52,293.57a.078.078,0,0,0,.054.1l.031,0a.135.135,0,0,0,.065-.049.091.091,0,0,0-.056-.1l-.024,0a.069.069,0,0,0-.07.057M377.1,290.633a.079.079,0,0,0-.049.1.076.076,0,0,0,.09.051h.01a.083.083,0,0,0,.049-.1.087.087,0,0,0-.077-.054l-.023,0m-120.328-.139a.087.087,0,0,0,.054.095l.016,0a.025.025,0,0,0,.016,0,.075.075,0,0,0,.062-.06.083.083,0,0,0-.044-.1l-.023,0a.087.087,0,0,0-.082.06m129.883-3.409a.074.074,0,0,0-.038.1.071.071,0,0,0,.078.049l.021,0a.08.08,0,0,0,.047-.1.1.1,0,0,0-.078-.051l-.031,0m-139.438-.2a.072.072,0,0,0,.044.1l.021,0,.021,0a.08.08,0,0,0,.054-.049.077.077,0,0,0-.033-.1.075.075,0,0,0-.036-.01.082.082,0,0,0-.072.056M396,283.007a.085.085,0,0,0-.036.109.074.074,0,0,0,.077.039.04.04,0,0,0,.029-.013v.01a.087.087,0,0,0,.038-.108.092.092,0,0,0-.077-.042.1.1,0,0,0-.031,0m-158.124-.253a.072.072,0,0,0,.042.1.035.035,0,0,0,.033.007.1.1,0,0,0,.065-.041.083.083,0,0,0-.044-.106.052.052,0,0,0-.026-.007.083.083,0,0,0-.07.051m167.241-4.335h-.013a.084.084,0,0,0-.025.106.075.075,0,0,0,.077.041.032.032,0,0,0,.029-.015.068.068,0,0,0,.028-.1.077.077,0,0,0-.07-.043.045.045,0,0,0-.026.007m-176.34-.3a.079.079,0,0,0,.034.1.083.083,0,0,0,.042.015.084.084,0,0,0,.067-.041.092.092,0,0,0-.034-.108.081.081,0,0,0-.034-.008.085.085,0,0,0-.075.044m185.152-4.773a.078.078,0,0,0-.016.1.063.063,0,0,0,.067.042c.01,0,.02-.013.029-.015a.073.073,0,0,0,.026-.1.062.062,0,0,0-.064-.036.094.094,0,0,0-.042.008m-193.976-.356a.079.079,0,0,0,.025.1.052.052,0,0,0,.052.013.085.085,0,0,0,.056-.039.067.067,0,0,0-.023-.1.073.073,0,0,0-.11.026m202.508-5.194a.075.075,0,0,0-.018.106.1.1,0,0,0,.077.031.042.042,0,0,0,.029-.015.07.07,0,0,0,.015-.106.068.068,0,0,0-.057-.033.087.087,0,0,0-.046.016m-211.038-.418a.1.1,0,0,0,.025.111.094.094,0,0,0,.054.011.072.072,0,0,0,.047-.026.08.08,0,0,0-.015-.111.085.085,0,0,0-.047-.015.081.081,0,0,0-.064.029m219.256-5.6a.071.071,0,0,0-.016.1.083.083,0,0,0,.077.031c.01,0,.018-.013.029-.015a.087.087,0,0,0,.015-.114.084.084,0,0,0-.06-.028.055.055,0,0,0-.044.021m-227.466-.453a.109.109,0,0,0,.015.111.15.15,0,0,0,.064.013.109.109,0,0,0,.047-.028.082.082,0,0,0-.015-.111.081.081,0,0,0-.049-.016.08.08,0,0,0-.062.031M438.553,255.3a.065.065,0,0,0-.008.1.081.081,0,0,0,.067.033.079.079,0,0,0,.038-.026.062.062,0,0,0,.007-.1.084.084,0,0,0-.061-.028.048.048,0,0,0-.042.02m-243.2-.477a.069.069,0,0,0,.013.1.058.058,0,0,0,.056.023.08.08,0,0,0,.047-.028c.026-.034.029-.087,0-.1l0-.008a.077.077,0,0,0-.049-.016.075.075,0,0,0-.062.031m250.7-6.415a.082.082,0,0,0-.008.1.127.127,0,0,0,.077.031.083.083,0,0,0,.038-.028.08.08,0,0,0,.007-.1.09.09,0,0,0-.061-.028.075.075,0,0,0-.052.025m-258.193-.513a.081.081,0,0,0,.069.134c.021,0,.029-.015.049-.026a.068.068,0,0,0,0-.1.077.077,0,0,0-.056-.026.1.1,0,0,0-.057.021m265.311-6.781a.08.08,0,0,0,0,.113.15.15,0,0,0,.064.011.09.09,0,0,0,.049-.018.093.093,0,0,0,0-.111.1.1,0,0,0-.059-.021.064.064,0,0,0-.054.026m-272.407-.53a.063.063,0,0,0,0,.1.075.075,0,0,0,.064.021c.021,0,.029,0,.039-.016a.07.07,0,0,0,.007-.1.059.059,0,0,0-.052-.026.08.08,0,0,0-.052.02m279.123-7.152a.071.071,0,0,0,.007.111.068.068,0,0,0,.062.011.058.058,0,0,0,.047-.026l0,.011a.08.08,0,0,0-.015-.111.092.092,0,0,0-.052-.018.064.064,0,0,0-.051.021m-285.806-.544a.07.07,0,0,0-.015.1.062.062,0,0,0,.065.033c.02,0,.028-.015.038-.015a.072.072,0,0,0,.016-.106.069.069,0,0,0-.059-.033.066.066,0,0,0-.046.016M466.169,225.4a.068.068,0,0,0,.015.1.059.059,0,0,0,.054.015.159.159,0,0,0,.057-.029.08.08,0,0,0-.015-.111.1.1,0,0,0-.049-.015.072.072,0,0,0-.062.039m-298.34-.562c-.039.016-.041.067-.016.1a.087.087,0,0,0,.077.029c.01,0,.018-.013.029-.015a.071.071,0,0,0,.016-.1.069.069,0,0,0-.057-.034.086.086,0,0,0-.049.018M472,217.031a.091.091,0,0,0,.025.108.074.074,0,0,0,.052,0,.082.082,0,0,0,.059-.029.081.081,0,0,0-.074-.114.075.075,0,0,0-.062.031m-309.968-.574a.073.073,0,0,0-.018.106.07.07,0,0,0,.077.029l.031,0a.083.083,0,0,0-.051-.145.063.063,0,0,0-.039.013m315.334-8.1a.069.069,0,0,0,.034.1.089.089,0,0,0,.042.015.061.061,0,0,0,.057-.038.07.07,0,0,0-.025-.1.063.063,0,0,0-.038-.011.091.091,0,0,0-.072.038m-320.647-.579a.075.075,0,0,0-.039.1c.024.028.049.046.078.041a.047.047,0,0,0,.029-.013.064.064,0,0,0,.028-.1.069.069,0,0,0-.062-.041.053.053,0,0,0-.034.013m325.541-8.39a.073.073,0,0,0,.034.109c.012.008.023.007.043,0a.093.093,0,0,0,.057-.038.083.083,0,0,0-.034-.1.064.064,0,0,0-.038-.011.07.07,0,0,0-.062.036m-330.392-.6a.075.075,0,0,0-.026.108.071.071,0,0,0,.077.039c.01,0,.01,0,.018-.011a.073.073,0,0,0,.039-.1.094.094,0,0,0-.077-.042.1.1,0,0,0-.031,0m334.777-8.62a.073.073,0,0,0,.034.11c.011.01.023.008.043,0a.07.07,0,0,0,.056-.039.078.078,0,0,0-.034-.108.076.076,0,0,0-.031-.007.073.073,0,0,0-.067.039m-339.107-.613a.072.072,0,0,0-.047.1.087.087,0,0,0,.088.049.034.034,0,0,0,.02-.011.074.074,0,0,0,.038-.1.077.077,0,0,0-.072-.044l-.026,0m342.977-8.821,0-.01a.082.082,0,0,0,.046.106l.016,0,.016,0a.085.085,0,0,0,.065-.051.077.077,0,0,0-.044-.095.076.076,0,0,0-.031-.007.071.071,0,0,0-.067.051m-346.8-.636a.072.072,0,0,0-.038.1.074.074,0,0,0,.078.052l.02,0a.091.091,0,0,0,.038-.11.074.074,0,0,0-.069-.042l-.029,0m350.137-9.017a.087.087,0,0,0,.056.1l.016,0a.025.025,0,0,0,.016,0,.076.076,0,0,0,.062-.06.074.074,0,0,0-.054-.095l-.013,0a.087.087,0,0,0-.083.054m-353.423-.646a.08.08,0,0,0-.049.1.067.067,0,0,0,.078.052l.011,0a.074.074,0,0,0,.059-.092.1.1,0,0,0-.088-.059l-.011,0m356.232-9.181a.073.073,0,0,0,.056.1l.015,0a.027.027,0,0,0,.016,0,.076.076,0,0,0,.064-.06.082.082,0,0,0-.054-.095l-.024,0a.071.071,0,0,0-.072.057m-358.985-.639a.071.071,0,0,0-.049.09.068.068,0,0,0,.08.059l.011,0a.077.077,0,0,0,.059-.088.094.094,0,0,0-.088-.059h-.013m361.24-9.326a.084.084,0,0,0,.064.093l.02,0a.071.071,0,0,0,.064-.06c.006-.041-.01-.08-.052-.085l-.021,0a.079.079,0,0,0-.074.059m-363.442-.631a.075.075,0,0,0-.06.092.078.078,0,0,0,.09.059.083.083,0,0,0,.06-.09.076.076,0,0,0-.07-.064l-.02,0m365.139-9.426a.088.088,0,0,0,.064.095l.02,0a.071.071,0,0,0,.065-.062l.01,0a.084.084,0,0,0-.075-.092l-.008,0a.073.073,0,0,0-.075.064m-366.791-.646a.083.083,0,0,0-.07.093.074.074,0,0,0,.09.059.07.07,0,0,0,.062-.08.08.08,0,0,0-.074-.072h-.008m368-9.55a.075.075,0,0,0-.083.064l.01,0a.072.072,0,0,0,.064.083l.021,0a.075.075,0,0,0,.062-.059l0-.013a.065.065,0,0,0-.062-.072h-.01m-369.12-.585a.072.072,0,0,0-.07.082.086.086,0,0,0,.082.072l.01,0a.078.078,0,0,0,.062-.082.074.074,0,0,0-.072-.07h-.011m369.615-9.532a.078.078,0,0,0,.072.082h.01a.09.09,0,0,0,.074-.072.089.089,0,0,0-.074-.083H502.4a.073.073,0,0,0-.075.074m-370.253-.577a.078.078,0,0,0,.082.072h.01a.07.07,0,0,0,.062-.08c0-.042-.031-.069-.072-.074a.089.089,0,0,0-.082.082m370.261-9.619a.072.072,0,0,0,.083.07c.039,0,.077-.031.072-.072a.1.1,0,0,0-.083-.08.078.078,0,0,0-.072.082m-370.181-.657a.079.079,0,0,0-.082.072c0,.041.031.078.072.072l.02,0c.031,0,.069-.029.062-.07a.065.065,0,0,0-.062-.072h-.01" transform="translate(-132.067 -110.071)" fill="none"/></clipPath><linearGradient id="ah" x1="-0.521" y1="2.815" x2="-0.517" y2="2.815" xlink:href="#b"/><clipPath id="ai"><path d="M579.92,247.739c0,.887,0,1.771,0,2.65.04,9.394.078,18.267-9.247,24.487-.534.356-1.081.686-1.634,1.006.007.108.009.217.016.325.6-.345,1.2-.7,1.78-1.09,9.452-6.306,9.415-15.254,9.375-24.729,0-.975-.008-1.956,0-2.939-.1.093-.194.195-.292.29" transform="translate(-569.042 -247.449)" fill="none"/></clipPath><linearGradient id="aj" x1="-21.079" y1="10.381" x2="-21.041" y2="10.381" gradientUnits="objectBoundingBox"><stop offset="0" stop-color="#a728da"/><stop offset="0.697" stop-color="#548ef7"/><stop offset="1" stop-color="#7dc6fd"/></linearGradient><clipPath id="ak"><path d="M625.609,274.811c-1.5,5.067-1.476,10.336-1.454,15.432.012,2.977.024,5.827-.24,8.517a35.995,35.995,0,0,0,2.891-2.953c.07-1.853.063-3.721.056-5.576-.021-4.9-.043-9.968,1.343-14.653a21.405,21.405,0,0,1,6.681-10.755c-.2-.953-.439-1.9-.716-2.835a23.694,23.694,0,0,0-8.561,12.823" transform="translate(-623.916 -261.988)" fill="none"/></clipPath><linearGradient id="al" x1="-19.162" y1="8.24" x2="-19.13" y2="8.24" xlink:href="#aj"/><clipPath id="am"><path d="M585.323,243.765a71.632,71.632,0,0,0-.536,11.134c.039,9.36.077,18.2-9.193,24.384a32.83,32.83,0,0,1-5.724,3.01c.042.174.085.349.128.523a33.59,33.59,0,0,0,5.891-3.09c9.508-6.342,9.47-15.322,9.429-24.83a68.355,68.355,0,0,1,.605-11.52c-.2.126-.4.259-.6.389" transform="translate(-569.87 -243.376)" fill="none"/></clipPath><linearGradient id="an" x1="-15.157" y1="7.592" x2="-15.13" y2="7.592" xlink:href="#aj"/><clipPath id="ao"><path d="M630.111,278.258c-1.36,4.6-1.471,9.356-1.465,14a35.745,35.745,0,0,0,3.055-5.215,34.559,34.559,0,0,1,1.237-7.949,25.382,25.382,0,0,1,2.2-5.3,36.384,36.384,0,0,0-.038-5.042,25.368,25.368,0,0,0-4.987,9.5" transform="translate(-628.646 -268.755)" fill="none"/></clipPath><linearGradient id="ap" x1="-30.771" y1="12.759" x2="-30.722" y2="12.759" xlink:href="#aj"/><clipPath id="aq"><path d="M592.348,240.5A29.189,29.189,0,0,0,591,244.172c-1.458,4.932-1.436,10.129-1.415,15.155.04,9.326.078,18.137-9.138,24.284a36.093,36.093,0,0,1-9.045,4.222c.1.24.19.482.292.719a36.754,36.754,0,0,0,9.182-4.3c9.562-6.378,9.525-15.391,9.484-24.932-.022-4.97-.044-10.109,1.381-14.932a27.379,27.379,0,0,1,1.641-4.252c-.347.114-.69.238-1.033.362" transform="translate(-571.401 -240.14)" fill="none"/></clipPath><linearGradient id="ar" x1="-11.975" y1="6.052" x2="-11.954" y2="6.052" xlink:href="#aj"/><clipPath id="as"><path d="M574.771,253.385a30.406,30.406,0,0,1-.944,5.785,18.882,18.882,0,0,1-2.766,5.964,18.255,18.255,0,0,1-1.655,2.024c-.005.028-.008.058-.012.086a18.433,18.433,0,0,0,1.708-2.082,18.914,18.914,0,0,0,2.773-5.98,30.524,30.524,0,0,0,.952-5.882l-.056.084" transform="translate(-569.394 -253.301)" fill="none"/></clipPath><linearGradient id="at" x1="-43.871" y1="20.978" x2="-43.793" y2="20.978" xlink:href="#aj"/><clipPath id="au"><path d="M613.779,263.877c-1.483,5.016-1.461,10.258-1.44,15.327.039,9.161.076,17.813-8.87,23.78a38.424,38.424,0,0,1-11.375,4.88,35.88,35.88,0,0,0,3.749.937,36.766,36.766,0,0,0,8.726-4.168c9.832-6.559,9.792-16.156,9.752-25.436-.021-4.927-.043-10.02,1.357-14.758,2.475-8.37,7.569-12.413,13.758-14.952q-.714-.795-1.485-1.554c-6.335,2.717-11.551,7.071-14.172,15.945" transform="translate(-592.095 -247.932)" fill="none"/></clipPath><linearGradient id="av" x1="-8.96" y1="4.224" x2="-8.945" y2="4.224" xlink:href="#aj"/><clipPath id="aw"><path d="M600.416,252.463c-1.468,4.965-1.446,10.18-1.424,15.224.039,9.26.077,18.007-9.031,24.082a41.426,41.426,0,0,1-13.5,5.449c.3.361.605.717.918,1.067a41.713,41.713,0,0,0,13.284-5.47c9.67-6.452,9.632-15.527,9.59-25.134-.021-4.953-.042-10.074,1.374-14.863,2.034-6.879,5.8-10.875,10.474-13.511-.625-.14-1.251-.267-1.881-.372-4.336,2.754-7.821,6.839-9.8,13.528" transform="translate(-576.456 -238.935)" fill="none"/></clipPath><linearGradient id="ax" x1="-9.01" y1="4.514" x2="-8.994" y2="4.514" xlink:href="#aj"/><clipPath id="ay"><path d="M601.051,238.645a24.194,24.194,0,0,0-5.309,9.768c-1.464,4.949-1.441,10.155-1.42,15.19.039,9.294.077,18.072-9.084,24.183a39.065,39.065,0,0,1-11.664,4.985c.18.3.36.605.549.9A39.627,39.627,0,0,0,585.8,288.63c9.617-6.414,9.577-15.458,9.538-25.031-.022-4.962-.043-10.093,1.378-14.9a22.623,22.623,0,0,1,5.9-10.171q-.785.041-1.566.116" transform="translate(-573.574 -238.529)" fill="none"/></clipPath><linearGradient id="az" x1="-10.077" y1="5.093" x2="-10.059" y2="5.093" xlink:href="#aj"/><clipPath id="ba"><path d="M605.009,256.348c-1.472,4.983-1.45,10.207-1.43,15.259.039,9.227.077,17.942-8.977,23.98a42.7,42.7,0,0,1-14.4,5.649c.061.053.117.108.178.162.417.359.843.7,1.27,1.04a42.443,42.443,0,0,0,13.784-5.6c9.724-6.486,9.683-16.017,9.645-25.235-.022-4.943-.044-10.055,1.367-14.828,2.421-8.192,7.314-12.28,13.285-14.853-.608-.3-1.22-.575-1.839-.837-5.753,2.729-10.451,7.039-12.883,15.267" transform="translate(-580.202 -241.081)" fill="none"/></clipPath><linearGradient id="bb" x1="-8.56" y1="4.222" x2="-8.545" y2="4.222" xlink:href="#aj"/><clipPath id="bc"><path d="M609.488,260.139c-1.478,5-1.456,10.233-1.435,15.293.039,9.194.077,17.878-8.924,23.88a41.993,41.993,0,0,1-13.97,5.542c.745.439,1.5.859,2.265,1.239A41.09,41.09,0,0,0,600.1,300.76c9.779-6.522,9.738-16.087,9.7-25.336-.021-4.935-.043-10.038,1.363-14.793,2.541-8.594,7.82-12.651,14.213-15.189-.548-.425-1.108-.826-1.673-1.214-6.354,2.7-11.587,7.04-14.21,15.911" transform="translate(-585.159 -244.228)" fill="none"/></clipPath><linearGradient id="bd" x1="-8.536" y1="4.125" x2="-8.521" y2="4.125" xlink:href="#aj"/><clipPath id="be"><path d="M617.694,267.571c-1.488,5.033-1.467,10.285-1.445,15.362.039,9.127.076,17.749-8.815,23.679A31.2,31.2,0,0,1,603,309.046a36.194,36.194,0,0,0,5.821-.692c9.728-6.591,9.691-16.167,9.651-25.43-.021-4.918-.042-10,1.353-14.723a21.344,21.344,0,0,1,12.268-14.255c-.4-.63-.823-1.248-1.263-1.857a23.441,23.441,0,0,0-13.137,15.481" transform="translate(-603.001 -252.09)" fill="none"/></clipPath><linearGradient id="bf" x1="-10.357" y1="4.734" x2="-10.34" y2="4.734" xlink:href="#aj"/><clipPath id="bg"><path d="M621.357,271.224c-1.493,5.051-1.47,10.31-1.45,15.4.03,6.606.052,12.944-3.322,18.179a35.833,35.833,0,0,0,3.923-2.3c1.908-4.969,1.888-10.48,1.865-15.884-.021-4.91-.043-9.987,1.348-14.689,1.952-6.6,5.438-10.453,9.877-13.02-.31-.747-.637-1.488-1-2.216-4.961,2.825-9.056,7.144-11.241,14.537" transform="translate(-616.584 -256.687)" fill="none"/></clipPath><linearGradient id="bh" x1="-13.873" y1="6.149" x2="-13.85" y2="6.149" xlink:href="#aj"/><clipPath id="bi"><path d="M184.441,309.1A15.558,15.558,0,1,0,200,293.543,15.561,15.561,0,0,0,184.441,309.1" transform="translate(-184.441 -293.543)" fill="#61c8db"/></clipPath><clipPath id="bj"><path d="M320.567,387.566a21,21,0,1,0,21-21,21,21,0,0,0-21,21" transform="translate(-320.567 -366.569)" fill="#19ace6"/></clipPath><clipPath id="bk"><path d="M629.5,371.926a14.045,14.045,0,1,0,14.045-14.045A14.044,14.044,0,0,0,629.5,371.926" transform="translate(-629.497 -357.881)" fill="#16b5cf"/></clipPath><clipPath id="bl"><path d="M373.266,186.981a15.1,15.1,0,1,0,3.2-.342,15.112,15.112,0,0,0-3.2.342" transform="translate(-361.337 -186.639)" fill="#19ace6"/></clipPath><clipPath id="bm"><path d="M359.345,207.952a7.3,7.3,0,1,0,1.55-.166,7.424,7.424,0,0,0-1.55.166" transform="translate(-353.578 -207.786)" fill="#19ace6"/></clipPath><clipPath id="bn"><path d="M569.122,108.255a41.328,41.328,0,0,0,81.408,0Z" transform="translate(-569.122 -108.255)" fill="#19ace6"/></clipPath></defs><g transform="translate(0 -146)"><rect width="1920" height="932" transform="translate(0 146)" fill="#f8f8f8"/><g transform="translate(-158.317 803.924) rotate(-90)" opacity="0.31"><g transform="translate(278.027 158.318)"><g clip-path="url(#a)"><rect width="25.496" height="22.312" transform="translate(-3.177 0.354) rotate(-7.77)" fill="url(#b)"/></g></g><g transform="translate(266.503 158.318)"><g clip-path="url(#c)"><rect width="48.786" height="36.59" transform="translate(-4.393 0.563) rotate(-7.77)" fill="url(#d)"/></g></g><g transform="translate(255.731 158.318)"><g clip-path="url(#e)"><rect width="71.538" height="50.233" transform="translate(-5.818 0.761) rotate(-7.77)" fill="url(#f)"/></g></g><g transform="translate(244.588 158.318)"><g clip-path="url(#g)"><rect width="94.536" height="63.892" transform="matrix(0.991, -0.135, 0.135, 0.991, -7.048, 0.958)" fill="url(#h)"/></g></g><g transform="translate(233.816 158.318)"><g clip-path="url(#i)"><rect width="117.579" height="77.564" transform="translate(-8.567 1.156) rotate(-7.77)" fill="url(#j)"/></g></g><g transform="translate(222.985 158.318)"><g clip-path="url(#k)"><rect width="140.538" height="91.211" transform="matrix(0.991, -0.135, 0.135, 0.991, -10.007, 1.354)" fill="url(#l)"/></g></g><g transform="translate(212.029 158.318)"><g clip-path="url(#m)"><rect width="163.535" height="104.943" transform="translate(-11.393 1.553) rotate(-7.77)" fill="url(#n)"/></g></g><g transform="translate(201.187 158.318)"><g clip-path="url(#o)"><rect width="186.536" height="118.721" transform="translate(-12.879 1.753) rotate(-7.77)" fill="url(#p)"/></g></g><g transform="translate(190.341 161.765)"><g clip-path="url(#q)"><rect width="209.013" height="128.987" transform="translate(-13.871 1.889) rotate(-7.77)" fill="url(#r)"/></g></g><g transform="translate(179.56 159.065)"><g clip-path="url(#s)"><rect width="232.263" height="145.333" transform="translate(-15.701 2.136) rotate(-7.77)" fill="url(#t)"/></g></g><g transform="translate(168.605 158.318)"><g clip-path="url(#u)"><rect width="255.405" height="159.765" transform="matrix(0.991, -0.135, 0.135, 0.991, -17.214, 2.348)" fill="url(#v)"/></g></g><g transform="translate(157.768 158.318)"><g clip-path="url(#w)"><rect width="278.411" height="173.451" transform="translate(-18.676 2.546) rotate(-7.77)" fill="url(#x)"/></g></g><g transform="translate(146.963 158.318)"><g clip-path="url(#y)"><rect width="301.353" height="187.117" transform="translate(-20.132 2.744) rotate(-7.77)" fill="url(#z)"/></g></g><g transform="translate(136.045 165.522)"><g clip-path="url(#aa)"><rect width="323.403" height="193.654" transform="matrix(0.991, -0.135, 0.135, 0.991, -20.601, 2.811)" fill="url(#ab)"/></g></g><g transform="translate(125.197 158.318)"><g clip-path="url(#ac)"><rect width="347.346" height="214.535" transform="matrix(0.991, -0.135, 0.135, 0.991, -23.028, 3.142)" fill="url(#ad)"/></g></g><g transform="translate(114.341 163.156)"><g clip-path="url(#ae)"><rect width="369.657" height="223.443" transform="translate(-23.841 3.252) rotate(-7.77)" fill="url(#af)"/></g></g><g transform="translate(103.539 161.285)"><g clip-path="url(#ag)"><rect width="392.797" height="238.974" transform="translate(-25.538 3.48) rotate(-7.77)" fill="url(#ah)"/></g></g></g><g transform="matrix(-0.966, 0.259, -0.259, -0.966, 3093.638, 454.916)" opacity="0.485"><g transform="translate(1126.065 472.924)"><g clip-path="url(#ai)"><rect width="29.127" height="27.297" transform="matrix(0.653, -0.757, 0.757, 0.653, -14.222, 16.499)" fill="url(#aj)"/></g></g><g transform="translate(1186.132 488.839)"><g clip-path="url(#ak)"><rect width="35.015" height="32.319" transform="matrix(0.653, -0.757, 0.757, 0.653, -18.186, 21.096)" fill="url(#al)"/></g></g><g transform="translate(1126.971 468.466)"><g clip-path="url(#am)"><rect width="40.355" height="37.911" transform="matrix(0.653, -0.757, 0.757, 0.653, -19.505, 22.627)" fill="url(#an)"/></g></g><g transform="translate(1191.31 496.247)"><g clip-path="url(#ao)"><rect width="22.111" height="20.344" transform="translate(-11.63 13.484) rotate(-49.238)" fill="url(#ap)"/></g></g><g transform="translate(1128.647 464.923)"><g clip-path="url(#aq)"><rect width="51.02" height="48.258" transform="matrix(0.653, -0.757, 0.757, 0.653, -23.942, 27.774)" fill="url(#ar)"/></g></g><g transform="translate(1126.45 479.33)"><g clip-path="url(#as)"><rect width="14.108" height="13.219" transform="matrix(0.653, -0.757, 0.757, 0.653, -6.896, 7.999)" fill="url(#at)"/></g></g><g transform="translate(1151.3 473.453)"><g clip-path="url(#au)"><rect width="70.485" height="68.026" transform="translate(-30.102 34.92) rotate(-49.238)" fill="url(#av)"/></g></g><g transform="translate(1134.18 463.604)"><g clip-path="url(#aw)"><rect width="68.224" height="65.746" transform="matrix(0.653, -0.757, 0.757, 0.653, -29.351, 34.049)" fill="url(#ax)"/></g></g><g transform="translate(1131.026 463.16)"><g clip-path="url(#ay)"><rect width="60.731" height="58.004" transform="translate(-27.271 31.636) rotate(-49.238)" fill="url(#az)"/></g></g><g transform="translate(1138.281 465.953)"><g clip-path="url(#ba)"><rect width="72.284" height="70.002" transform="translate(-30.344 35.201) rotate(-49.238)" fill="url(#bb)"/></g></g><g transform="translate(1143.707 469.398)"><g clip-path="url(#bc)"><rect width="73.113" height="70.85" transform="matrix(0.653, -0.757, 0.757, 0.653, -30.595, 35.492)" fill="url(#bd)"/></g></g><g transform="translate(1163.238 478.004)"><g clip-path="url(#be)"><rect width="62.136" height="59.224" transform="matrix(0.653, -0.757, 0.757, 0.653, -28.167, 32.675)" fill="url(#bf)"/></g></g><g transform="translate(1178.106 483.037)"><g clip-path="url(#bg)"><rect width="47.55" height="44.3" transform="translate(-23.794 27.602) rotate(-49.238)" fill="url(#bh)"/></g></g></g><g transform="translate(108.885 500.726)" opacity="0.429"><g transform="translate(0 289.819)" clip-path="url(#bi)"><rect width="44.005" height="44.005" transform="translate(-15.559 15.559) rotate(-45)" fill="#61c8db"/></g></g><g transform="translate(561.18 779.323)" opacity="0.188"><g clip-path="url(#bj)"><rect width="59.393" height="59.393" transform="translate(-20.998 20.998) rotate(-45)" fill="#19ace6"/></g></g><g transform="translate(1104.53 897.271)" opacity="0.273"><g clip-path="url(#bk)"><rect width="39.724" height="39.724" transform="translate(-14.045 14.045) rotate(-45)" fill="#16b5cf"/></g></g><g transform="translate(0 -15.001)"><g transform="translate(635.992 303.8)" opacity="0.201"><g clip-path="url(#bl)"><rect width="44.523" height="44.946" transform="matrix(0.542, -0.84, 0.84, 0.542, -15.836, 22.352)" fill="#19ace6"/></g></g><g transform="translate(621.876 342.271)" opacity="0.201"><g clip-path="url(#bm)"><rect width="21.529" height="21.734" transform="translate(-7.656 10.809) rotate(-57.181)" fill="#19ace6"/></g></g></g><g transform="translate(1169.682 146)" opacity="0.183"><g clip-path="url(#bn)"><rect width="84.585" height="84.585" transform="translate(-19.106 19.107) rotate(-45)" fill="#19ace6"/></g></g></g></svg>